<mxfile host="app.diagrams.net" agent="Mozilla/5.0 (Macintosh; Intel Mac OS X 10_15_7) AppleWebKit/537.36 (KHTML, like Gecko) Chrome/132.0.0.0 Safari/537.36" version="26.0.10">
  <diagram id="41XfMsAx5g4mSfIMQz-s" name="Page-1">
    <mxGraphModel dx="526" dy="333" grid="1" gridSize="10" guides="1" tooltips="1" connect="1" arrows="1" fold="1" page="1" pageScale="1" pageWidth="827" pageHeight="1169" math="0" shadow="0">
      <root>
        <mxCell id="0" />
        <mxCell id="1" parent="0" />
        <mxCell id="1qp-YZCZ-MBouMGp_NZz-1" value="" style="ellipse;whiteSpace=wrap;html=1;aspect=fixed;fillColor=#FF0000;strokeColor=#b85450;" vertex="1" parent="1">
          <mxGeometry x="200" y="140" width="10" height="10" as="geometry" />
        </mxCell>
        <mxCell id="1qp-YZCZ-MBouMGp_NZz-2" value="" style="ellipse;whiteSpace=wrap;html=1;aspect=fixed;fillColor=#d5e8d4;strokeColor=#82b366;" vertex="1" parent="1">
          <mxGeometry x="200" y="160" width="10" height="10" as="geometry" />
        </mxCell>
        <mxCell id="1qp-YZCZ-MBouMGp_NZz-3" value="" style="ellipse;whiteSpace=wrap;html=1;aspect=fixed;fillColor=#d5e8d4;strokeColor=#82b366;" vertex="1" parent="1">
          <mxGeometry x="200" y="180" width="10" height="10" as="geometry" />
        </mxCell>
        <mxCell id="1qp-YZCZ-MBouMGp_NZz-4" value="" style="ellipse;whiteSpace=wrap;html=1;aspect=fixed;fillColor=#d5e8d4;strokeColor=#82b366;" vertex="1" parent="1">
          <mxGeometry x="200" y="200" width="10" height="10" as="geometry" />
        </mxCell>
        <mxCell id="1qp-YZCZ-MBouMGp_NZz-7" value="" style="ellipse;whiteSpace=wrap;html=1;aspect=fixed;fillColor=#FF0000;strokeColor=#b85450;" vertex="1" parent="1">
          <mxGeometry x="200" y="250" width="10" height="10" as="geometry" />
        </mxCell>
        <mxCell id="1qp-YZCZ-MBouMGp_NZz-8" value="" style="ellipse;whiteSpace=wrap;html=1;aspect=fixed;fillColor=#d5e8d4;strokeColor=#82b366;" vertex="1" parent="1">
          <mxGeometry x="200" y="270" width="10" height="10" as="geometry" />
        </mxCell>
        <mxCell id="1qp-YZCZ-MBouMGp_NZz-9" value="" style="ellipse;whiteSpace=wrap;html=1;aspect=fixed;fillColor=#d5e8d4;strokeColor=#82b366;" vertex="1" parent="1">
          <mxGeometry x="200" y="290" width="10" height="10" as="geometry" />
        </mxCell>
        <mxCell id="1qp-YZCZ-MBouMGp_NZz-10" value="" style="ellipse;whiteSpace=wrap;html=1;aspect=fixed;fillColor=#d5e8d4;strokeColor=#82b366;" vertex="1" parent="1">
          <mxGeometry x="200" y="310" width="10" height="10" as="geometry" />
        </mxCell>
        <mxCell id="1qp-YZCZ-MBouMGp_NZz-11" value="" style="ellipse;whiteSpace=wrap;html=1;aspect=fixed;fillColor=#d5e8d4;strokeColor=#82b366;" vertex="1" parent="1">
          <mxGeometry x="200" y="330" width="10" height="10" as="geometry" />
        </mxCell>
        <mxCell id="1qp-YZCZ-MBouMGp_NZz-14" value="" style="endArrow=none;html=1;rounded=0;exitX=0;exitY=0.5;exitDx=0;exitDy=0;curved=1;entryX=0;entryY=0.5;entryDx=0;entryDy=0;fillColor=#d5e8d4;strokeColor=#82b366;" edge="1" parent="1" source="1qp-YZCZ-MBouMGp_NZz-8" target="1qp-YZCZ-MBouMGp_NZz-2">
          <mxGeometry width="50" height="50" relative="1" as="geometry">
            <mxPoint x="200" y="305" as="sourcePoint" />
            <mxPoint x="200" y="135" as="targetPoint" />
            <Array as="points">
              <mxPoint x="150" y="220" />
            </Array>
          </mxGeometry>
        </mxCell>
        <mxCell id="1qp-YZCZ-MBouMGp_NZz-15" value="" style="endArrow=none;html=1;rounded=0;entryX=0;entryY=0.5;entryDx=0;entryDy=0;exitX=0;exitY=0.5;exitDx=0;exitDy=0;curved=1;fillColor=#d5e8d4;strokeColor=#82b366;" edge="1" parent="1" source="1qp-YZCZ-MBouMGp_NZz-9" target="1qp-YZCZ-MBouMGp_NZz-3">
          <mxGeometry width="50" height="50" relative="1" as="geometry">
            <mxPoint x="200" y="324" as="sourcePoint" />
            <mxPoint x="200" y="154" as="targetPoint" />
            <Array as="points">
              <mxPoint x="150" y="239" />
            </Array>
          </mxGeometry>
        </mxCell>
        <mxCell id="1qp-YZCZ-MBouMGp_NZz-16" value="" style="endArrow=none;html=1;rounded=0;entryX=0;entryY=0.5;entryDx=0;entryDy=0;exitX=0;exitY=0.5;exitDx=0;exitDy=0;curved=1;fillColor=#d5e8d4;strokeColor=#82b366;" edge="1" parent="1" source="1qp-YZCZ-MBouMGp_NZz-10" target="1qp-YZCZ-MBouMGp_NZz-4">
          <mxGeometry width="50" height="50" relative="1" as="geometry">
            <mxPoint x="200" y="344" as="sourcePoint" />
            <mxPoint x="200" y="174" as="targetPoint" />
            <Array as="points">
              <mxPoint x="150" y="259" />
            </Array>
          </mxGeometry>
        </mxCell>
        <mxCell id="1qp-YZCZ-MBouMGp_NZz-17" value="" style="endArrow=none;html=1;rounded=0;entryX=0;entryY=0.5;entryDx=0;entryDy=0;exitX=0;exitY=0.5;exitDx=0;exitDy=0;curved=1;fillColor=#d5e8d4;strokeColor=#82b366;" edge="1" parent="1" source="1qp-YZCZ-MBouMGp_NZz-11" target="1qp-YZCZ-MBouMGp_NZz-81">
          <mxGeometry width="50" height="50" relative="1" as="geometry">
            <mxPoint x="200" y="365" as="sourcePoint" />
            <mxPoint x="200" y="225" as="targetPoint" />
            <Array as="points">
              <mxPoint x="150" y="280" />
            </Array>
          </mxGeometry>
        </mxCell>
        <mxCell id="1qp-YZCZ-MBouMGp_NZz-18" value="" style="endArrow=none;dashed=1;html=1;rounded=0;" edge="1" parent="1">
          <mxGeometry width="50" height="50" relative="1" as="geometry">
            <mxPoint x="160" y="240" as="sourcePoint" />
            <mxPoint x="430" y="240" as="targetPoint" />
          </mxGeometry>
        </mxCell>
        <mxCell id="1qp-YZCZ-MBouMGp_NZz-21" value="" style="endArrow=classic;html=1;rounded=0;exitX=1.124;exitY=0.522;exitDx=0;exitDy=0;exitPerimeter=0;endSize=3;sketch=1;curveFitting=1;jiggle=2;" edge="1" parent="1">
          <mxGeometry width="50" height="50" relative="1" as="geometry">
            <mxPoint x="223.99999999999994" y="294.98999999999995" as="sourcePoint" />
            <mxPoint x="239.76" y="294.77" as="targetPoint" />
          </mxGeometry>
        </mxCell>
        <mxCell id="1qp-YZCZ-MBouMGp_NZz-22" value="" style="rounded=0;whiteSpace=wrap;html=1;fillColor=#f5f5f5;fontColor=#333333;strokeColor=#666666;sketch=1;curveFitting=1;jiggle=2;" vertex="1" parent="1">
          <mxGeometry x="250" y="140" width="40" height="90" as="geometry" />
        </mxCell>
        <mxCell id="1qp-YZCZ-MBouMGp_NZz-23" value="" style="rounded=0;whiteSpace=wrap;html=1;fillColor=#f5f5f5;fontColor=#333333;strokeColor=#666666;sketch=1;curveFitting=1;jiggle=2;" vertex="1" parent="1">
          <mxGeometry x="250" y="250" width="40" height="90" as="geometry" />
        </mxCell>
        <mxCell id="1qp-YZCZ-MBouMGp_NZz-29" value="" style="endArrow=classic;html=1;rounded=0;exitX=1.124;exitY=0.522;exitDx=0;exitDy=0;exitPerimeter=0;endSize=3;sketch=1;curveFitting=1;jiggle=2;" edge="1" parent="1">
          <mxGeometry width="50" height="50" relative="1" as="geometry">
            <mxPoint x="223.99999999999994" y="185.08999999999995" as="sourcePoint" />
            <mxPoint x="239.76" y="184.86999999999998" as="targetPoint" />
          </mxGeometry>
        </mxCell>
        <mxCell id="1qp-YZCZ-MBouMGp_NZz-34" value="" style="shape=image;verticalLabelPosition=bottom;labelBackgroundColor=default;verticalAlign=top;aspect=fixed;imageAspect=0;editableCssRules=.*;image=data:image/svg+xml,PHN2ZyB4bWxuczp4bGluaz0iaHR0cDovL3d3dy53My5vcmcvMTk5OS94bGluayIgeG1sbnM9Imh0dHA6Ly93d3cudzMub3JnLzIwMDAvc3ZnIiB4bWw6c3BhY2U9InByZXNlcnZlIiBzdHlsZT0iZW5hYmxlLWJhY2tncm91bmQ6bmV3IDAgMCA0NTAgNDUwOyIgdmlld0JveD0iMCAwIDQ1MCA0NTAiIHk9IjBweCIgeD0iMHB4IiBpZD0iTGF5ZXJfMSIgdmVyc2lvbj0iMS4xIj4mI3hhOzxzdHlsZSB0eXBlPSJ0ZXh0L2NzcyI+JiN4YTsJLnN0MHtmaWxsOiMyMzFGMjA7c3Ryb2tlOiMyMzFGMjA7c3Ryb2tlLXdpZHRoOjEwO3N0cm9rZS1taXRlcmxpbWl0OjEwO30mI3hhOzwvc3R5bGU+JiN4YTs8Zz4mI3hhOwk8cGF0aCBkPSJNNDE5Ljc2LDE1NC45N2MtMC40OC0wLjI2LTEuMDktMC4wOC0xLjM1LDAuNGMtMjkuNDksNTQuNjMtNjIuMTgsNzYuNzctOTAuNiw4NC4zJiMxMDsmIzk7JiM5O2MwLjM2LTIuMTMsMC40Mi00LjQzLDAuMS02LjkyYy0wLjY0LTUtMS44My05Ljg4LTIuOTktMTQuNjFjLTAuODMtMy40LTEuNy02LjkyLTIuMzMtMTAuNDJjLTAuNDctMi41OS0wLjk0LTUuNzItMS40NC05LjAzJiMxMDsmIzk7JiM5O2MtMS40MS05LjMxLTMtMTkuODUtNS42MS0yNi43MmMtNS4zNy0xNC4xNC0xOC4yNC0yNC42Ni0zMy44Mi0yOC43MmMwLTAuMDgtMC4wMS0wLjE1LTAuMDEtMC4yM2MtMC4zMS04LjQ2LTAuNjQtMTcuMjItMTQuMDEtMjUuNSYjMTA7JiM5OyYjOTtjLTUuMzMtMy4zMS0xNS42OS01Ljc2LTI0LjE2LTcuNDRjLTAuODQtMC42My0xLjY5LTEuMjUtMi41NS0xLjg2Yy0xMS40Mi04LjA2LTI4LjIzLTE2LjktNDMuNDQtMTMuMjMmIzEwOyYjOTsmIzk7Yy04LjM5LDIuMDItMTQuMDksOC41MS0xNi45NywxOS4xMmMtMy4zNS0wLjY0LTYuODEtMS4zNy0xMC40NC0yLjM3bC0wLjM5LTAuMTFjLTEwLjI2LTIuODMtMjcuNDItNy41Ni0zNy4wNy0wLjE2JiMxMDsmIzk7JiM5O2MtNS44MSw0LjQ2LTYuNSwxMi41Mi03LjEyLDE5LjYzYy0wLjE2LDEuODgtMC4zMSwzLjY2LTAuNTUsNS4yOWMtMS4zMyw5LjAyLTUuNiwxNS42OS05LjczLDIyLjE0Yy01LjA1LDcuOS05LjgzLDE1LjM1LTkuMDYsMjYuMyYjMTA7JiM5OyYjOTtjMC4yMSwyLjk4LDAuNzIsNi40MywxLjI2LDEwLjA4YzAuMzgsMi41OSwwLjc5LDUuMzQsMS4xMyw4LjJjLTAuNTQtMC45NS0xLjA5LTEuODktMS42NC0yLjgzYy0wLjIyLTAuMzgtMC41Mi0wLjkzLTAuODktMS42JiMxMDsmIzk7JiM5O2MtMi44OS01LjI5LTguMjctMTUuMTUtMTMuNDMtMTMuN2MtNC4wOCwxLjE0LTUuMjIsOC43Mi01Ljg0LDE2Ljc0Yy0wLjA1LDAuNi0wLjA5LDEuMS0wLjEyLDEuNDhjLTAuNTYsNS42Mi0wLjM0LDEyLjYsMS4yLDE5LjQ1JiMxMDsmIzk7JiM5O2MtMS4xOCwzLjIzLTEuOSw2Ljg4LTIuMjQsMTAuNzZjLTMuMzMsMC4wMi02LjY3LDAuMDMtOS45MywwLjA0Yy05Ljc1LDAuMDQtMTguOTYsMC4wOC0yNS4yOSwwLjIyJiMxMDsmIzk7JiM5O2MtMTQuNzcsMC4zNC0yNi40LDAuMDgtMjYuNTEsMC4wOGMtMC41Ni0wLjAxLTEuMDEsMC40Mi0xLjAyLDAuOThjLTAuMDEsMC41NSwwLjQyLDEuMDEsMC45OCwxLjAyYzAuMTIsMCwxMS43OCwwLjI2LDI2LjYtMC4wOCYjMTA7JiM5OyYjOTtjNi4zMS0wLjE0LDE1LjUxLTAuMTgsMjUuMjUtMC4yMmMzLjIxLTAuMDEsNi40OS0wLjAzLDkuNzctMC4wNGMtMC44NywxNS44MSwzLjkyLDM0LjgsOC4xNiw0NC40OCYjMTA7JiM5OyYjOTtjOS45LDIyLjU4LDIxLjY5LDM1LjY2LDM0LjU1LDM4LjUyYzAuMDgsMC4wOCwwLjE3LDAuMTYsMC4yNSwwLjI0YzMuMzQsMy4yMiw3Ljg5LDUuNCwxMi44MSw2Ljg2YzMuMDYsMy44Myw2Ljg3LDcuMzQsMTEuMzMsMTAuMzUmIzEwOyYjOTsmIzk7YzkuMzIsNi4zLDIwLjE2LDkuNTUsMzAuNzYsOS41NWM2LjU0LDAsMTIuOTgtMS4yNCwxOC45Mi0zLjc2YzQuNzYtMi4wMiw4LjgyLTQuNTksMTIuMTUtNy42M2MzLjkxLDMuNCw4LjI1LDUuODgsMTIuNzEsNy4wOCYjMTA7JiM5OyYjOTtjNi42NywxLjc5LDE2Ljg5LDEuNjksMjcuNjYtOS4wMmMxLjE5LTEuMTksMi40LTIuNDgsMy42LTMuODdjNC4yOCwxLjA0LDkuMjcsMC4xLDE0LjkyLTIuODFjMTYuNTgtOC41NCwzOS4wNi0zNy4zNiwzNy45Mi02NS45MyYjMTA7JiM5OyYjOTtjNi43NC0zLjk3LDEzLjcxLTkuMzcsMTYuMDUtMTcuNTRjMjkuMDgtNy4zNiw2Mi42Ni0yOS42NSw5Mi44Ny04NS42MUM0MjAuNDMsMTU1Ljg0LDQyMC4yNSwxNTUuMjMsNDE5Ljc2LDE1NC45N3ogTTI4MCwxNDguMDUmIzEwOyYjOTsmIzk7YzAuMzMsMy4zMy0wLjAyLDYuNzItMC42LDEwLjA4Yy0xLjktNC45OC00LjE3LTkuODItNi43Ni0xNC40NmMyLjQzLDAuMjMsNC44MSwwLjYyLDcuMTQsMS4xNiYjMTA7JiM5OyYjOTtDMjc5LjgzLDE0NS45MSwyNzkuODksMTQ2Ljk4LDI4MCwxNDguMDV6IE0yNDMuMzksMjk2LjRjLTYuMjUsMi44Mi0xMi42OSwzLjQ4LTE4LjY5LDIuOTljLTAuNTktMy4yMy0xLjUxLTYuNTctMi43Ni0xMCYjMTA7JiM5OyYjOTtjLTAuNTItMS40My0xLjI3LTIuOTgtMi4yMi00LjQ2Yy0wLjMyLTEuNzQtMC43NC0zLjQ3LTEuMjUtNS4xOWM1Ljg1LDAuMjEsMTEuNzYtMC44MywxNy4zMS0zLjYzYzYuNzYtMy40MSwxMS40NC04LjY3LDE0LjUtMTQuODImIzEwOyYjOTsmIzk7YzEuMDQsMS4wNCwyLjE1LDIuMTEsMy4zMywzLjE4Yy0wLjM4LDAuMjQtMC43NiwwLjUxLTEuMTMsMC44Yy04LDYuMjctOS4wMiwyMC4wMy05LjA4LDI5LjgyJiMxMDsmIzk7JiM5O0MyNDMuMzgsMjk1LjUyLDI0My4zOCwyOTUuOTYsMjQzLjM5LDI5Ni40eiBNMjIwLjQ0LDI5MS4xNmMwLjk0LDIuNzMsMS42Niw1LjQxLDIuMTYsOC4wMWMtMC44NC0wLjExLTEuNjYtMC4yMy0yLjQ4LTAuMzgmIzEwOyYjOTsmIzk7YzAuMTctMS4wOCwwLjI4LTIuMjEsMC4zMy0zLjM3QzIyMC41MiwyOTQsMjIwLjUxLDI5Mi41OCwyMjAuNDQsMjkxLjE2eiBNMTExLjM2LDIxMi4zOGMxLjMxLDIuNTUsMi41Niw1LjEyLDMuNzUsNy42OSYjMTA7JiM5OyYjOTtjLTEuMzgsMC4xOC0yLjcsMC40Mi0zLjk2LDAuNzJDMTExLjQxLDIxNy45OCwxMTEuNDUsMjE1LjE2LDExMS4zNiwyMTIuMzh6IE0yMDMuMDcsMTczLjY4Yy0xLjcxLTAuMTEtMy40LTAuNC01LjAzLTAuODkmIzEwOyYjOTsmIzk7YzEuNDUtMS41NSwzLjExLTIuNjIsNC45Ni0zLjJDMjAyLjkzLDE3MC45LDIwMi45NiwxNzIuMjcsMjAzLjA3LDE3My42OHogTTIwMy4yMiwxNzUuNjdjLTIuODksNi43OS0zLjM0LDE0LjE1LTIuMjIsMjEuMzImIzEwOyYjOTsmIzk7Yy0yLjU1LTEuNTUtNS4wNC0zLjE2LTcuNDEtNC44OWMtMC44Ni02LjY3LTAuMTYtMTIuOTYsMy4xLTE3LjY0QzE5OC44LDE3NS4xNiwyMDEsMTc1LjU2LDIwMy4yMiwxNzUuNjd6IE0yNzEuNjcsMjMzLjM2JiMxMDsmIzk7JiM5O2MtMS4yNSwxLjYyLTIuNiwzLjA4LTQuMDMsNC4zOWMtMi4wOC0wLjYtMy45Ni0xLjE4LTUuNi0xLjY5bC0wLjM4LTAuMTJjLTIuMzMtMC43Mi00LjYxLTEuNTQtNi44MS0yLjQ1JiMxMDsmIzk7JiM5O2MtMC4xMS0xLjQyLTAuMjctMi44Mi0wLjQ3LTQuMTljMC0wLjAyLTAuMDEtMC4wNS0wLjAxLTAuMDdjMS4wNi0wLjg1LDIuMTEtMS43OCwzLjE1LTIuNzljOC42NC04LjM3LDE0LjQ4LTE4Ljc4LDE3LjgzLTMyLjA0JiMxMDsmIzk7JiM5O2MyLjAxLDIuMzIsMy45Nyw0LjY4LDUuODYsNy4wOWMtMC4yMSwzLjAyLTAuNTEsNS45My0wLjc5LDguNjFsLTAuMTEsMS4wNGMtMC4yMSwyLjA0LTAuNDQsNC4wNi0wLjY5LDYuMDUmIzEwOyYjOTsmIzk7QzI3Ny44MywyMjMuMjMsMjc1LjIzLDIyOC43NywyNzEuNjcsMjMzLjM2eiBNMjc4LjM2LDIyNi4xNmMtMC43NSw0LjcxLTEuNjIsOS4yOC0yLjYsMTMuN2MtMi4wOC0wLjQ4LTQuMDUtMC45OS01Ljg3LTEuNDkmIzEwOyYjOTsmIzk7YzEuMTgtMS4xNiwyLjMtMi40MiwzLjM2LTMuNzlDMjc1LjIyLDIzMi4wNSwyNzYuOTEsMjI5LjIyLDI3OC4zNiwyMjYuMTZ6IE0yNTUsMjM1LjdjMS45OCwwLjc5LDQuMDEsMS41MSw2LjA4LDIuMTVsMC4zOCwwLjEyJiMxMDsmIzk7JiM5O2MxLjMxLDAuNCwyLjc2LDAuODUsNC4zNSwxLjMyYy0zLjI3LDIuNTUtNi45NSw0LjM1LTExLjAzLDUuMzlDMjU1LjA4LDI0MS42OCwyNTUuMTQsMjM4LjY2LDI1NSwyMzUuN3ogTTI3NS45MywxOTIuMDImIzEwOyYjOTsmIzk7YzEuMS00LjkxLDEuODktMTAuMiwyLjM2LTE1LjkxYzMuMDEsNi41NywzLjQ1LDE0LjY4LDMuMSwyMi4zOUMyNzkuNjIsMTk2LjMsMjc3LjgsMTk0LjE0LDI3NS45MywxOTIuMDJ6IE0yNzguMjIsMTY0LjAxJiMxMDsmIzk7JiM5O2MtMC40MywyLjAxLTAuODcsNC4wNy0xLjIzLDYuMTNjLTUuOTEtNy40Mi0xNS41OC05LjU2LTI1LjAxLTExLjFjLTcuMzYtMS4yLTE1LjM5LTIuNTEtMjMuNC0zLjEzYzAuMDktMC43OCwwLjEzLTEuNTYsMC4xMy0yLjM1JiMxMDsmIzk7JiM5O2MxMS40OC02LjE1LDI0LjU2LTkuNDUsMzUuNDktMTAuMDZjMi4wNC0wLjEyLDQuMDUtMC4xMiw2LjA1LTAuMDFjMi44Niw0Ljk3LDUuMzMsMTAuMTgsNy4zNywxNS41NmMwLjM2LDAuOTQsMC43LDEuOTMsMS4wMywyLjk2JiMxMDsmIzk7JiM5O0MyNzguNSwxNjIuNjksMjc4LjM2LDE2My4zNSwyNzguMjIsMTY0LjAxeiBNMjUxLjY2LDE2MS4wMmM5LjQzLDEuNTQsMTkuMDgsMy42NywyNC40NSwxMS4yN2MwLjE2LDAuMjMsMC4zMiwwLjQ2LDAuNDcsMC42OSYjMTA7JiM5OyYjOTtjLTAuMDgsMC42NS0wLjE1LDEuMy0wLjIsMS45NmMtMC40Miw1LjQ1LTEuMTEsMTAuNTItMi4xLDE1LjI0Yy0yLjM1LTIuNTktNC43OC01LjEyLTcuMjgtNy41OCYjMTA7JiM5OyYjOTtjLTEwLjI2LTEwLjA4LTIzLjg3LTIxLjU5LTM5LjI3LTIyLjY2YzAuMjItMC42NywwLjM5LTEuMzUsMC41NC0yLjAzQzIzNi4yNSwxNTguNTEsMjQ0LjMsMTU5LjgyLDI1MS42NiwxNjEuMDJ6IE0yNjUuNiwxODQuMDImIzEwOyYjOTsmIzk7YzIuODEsMi43Niw1LjUzLDUuNjEsOC4xNSw4LjU1Yy0zLjIsMTMuNTQtOC45NiwyNC4wNi0xNy42MSwzMi40NGMtMC43LDAuNjgtMS40MSwxLjMyLTIuMTIsMS45M2MtMy4xNS0xOC4xLTEyLjQ5LTM2LTI1LjI2LTQ4LjI5JiMxMDsmIzk7JiM5O2MtMS41Ny0xLjUxLTUuMTYtNC43NS05LjY0LTcuNDJjMS43LTEuMTcsMy4yNi0yLjU2LDQuNjEtNC4xNmMxLjQtMS42NiwyLjQ3LTMuMzksMy4yNS01LjE3JiMxMDsmIzk7JiM5O0MyNDEuOTksMTYyLjY1LDI1NS40NSwxNzQuMDUsMjY1LjYsMTg0LjAyeiBNMTY1LjE4LDIwNi45NWMxLjY2LTMuNzcsMy45LTcuNjIsNi41OS0xMS40YzAuNi0wLjI3LDEuMjMtMC41MSwxLjktMC43MSYjMTA7JiM5OyYjOTtjNC45NC0xLjUxLDkuOTItMC45MywxNC41MiwwLjk0YzAuMDIsMC42OSwwLjAxLDEuMzctMC4wNSwyLjA1Yy0xLjA5LDEyLjYyLTEyLjg2LDIwLjc2LTI2LjM3LDI1Ljk3Yy0wLjEtMC42Ni0wLjItMS4zMy0wLjI3LTEuOTkmIzEwOyYjOTsmIzk7Yy0wLjA3LTAuNTktMC4xMy0xLjE4LTAuMTctMS43OEMxNjIuMDIsMjE1LjYyLDE2My4yOSwyMTEuMjUsMTY1LjE4LDIwNi45NXogTTE2MS43MiwyMTAuMjdjMC44MS00LjU1LDIuNTgtOC43NSw1LjY1LTExLjc0JiMxMDsmIzk7JiM5O2MtMS41NiwyLjU0LTIuOTEsNS4wOS00LjAyLDcuNjFDMTYyLjc1LDIwNy41MSwxNjIuMjEsMjA4Ljg4LDE2MS43MiwyMTAuMjd6IE0xODYuODUsMTg5LjJjMC41MywxLjQ2LDAuOTEsMi45MiwxLjEzLDQuMzcmIzEwOyYjOTsmIzk7Yy0yLjc1LTEuMDEtNS42Mi0xLjU5LTguNTUtMS41OWMtMS44NCwwLTMuNjksMC4yMy01LjU0LDAuNzJjMi4zOC0zLjA3LDUuMDQtNi4wNiw3LjkxLTguOSYjMTA7JiM5OyYjOTtDMTgzLjMzLDE4NS43MywxODUuMDMsMTg3LjUyLDE4Ni44NSwxODkuMnogTTE4MC41MSwxNzguMzNjMC41OCwwLjcyLDEuMTMsMS40NiwxLjY1LDIuMTljLTAuMDUsMC4wNS0wLjExLDAuMS0wLjE2LDAuMTUmIzEwOyYjOTsmIzk7QzE4MS40NywxNzkuOTIsMTgwLjk3LDE3OS4xNCwxODAuNTEsMTc4LjMzeiBNMTgzLjI1LDE4Mi4zOGMwLjAzLTAuMDMsMC4wNy0wLjA3LDAuMS0wLjFjMC4yMiwwLjMzLDAuNDMsMC42NywwLjYzLDEuMDEmIzEwOyYjOTsmIzk7QzE4My43MywxODIuOTksMTgzLjQ5LDE4Mi42OSwxODMuMjUsMTgyLjM4eiBNMTkwLjEzLDE5OGMwLjA0LTAuNDQsMC4wNi0wLjg3LDAuMDctMS4zMWMwLjg0LDAuNDIsMS42NiwwLjg4LDIuNDcsMS4zOCYjMTA7JiM5OyYjOTtjMS43NSw3LjEzLDQuNjUsMTMuMzMsNi4xNCwxNi4yNmMyLjcsNS4zLDYuMzcsMTAuODIsMTAuODksMTUuODJjLTAuNTQsMy40MS0xLjk1LDYuNzMtNC41MSw5LjcxYy0yLjc3LDMuMjMtNi4zLDUuNTQtMTAuMjYsNy4wOCYjMTA7JiM5OyYjOTtjLTEuOTEtMS41Ni0zLjkyLTMuMDgtNi4wMy00LjU3Yy03LjktNS41NS0xNi45MS0xMC4zNS0yNi4yMi0xNC4wOWMtMC4yMS0wLjg1LTAuMzktMS42OS0wLjU2LTIuNTQmIzEwOyYjOTsmIzk7QzE3Ni4zNSwyMjAuMjksMTg4Ljk1LDIxMS42MywxOTAuMTMsMTk4eiBNMTg5LjY0LDE5MS41OWMwLjY3LDAuNTQsMS4zNSwxLjA3LDIuMDUsMS41OWMwLjExLDAuNzYsMC4yNSwxLjUxLDAuMzksMi4yNSYjMTA7JiM5OyYjOTtjLTAuNjUtMC4zNS0xLjMxLTAuNjgtMS45Ny0wLjk5QzE5MC4wMSwxOTMuNSwxODkuODYsMTkyLjU1LDE4OS42NCwxOTEuNTl6IE0yMTUuMDYsMTcxLjI5Yy0yLjcsMS4zMi01LjY1LDIuMTItOC42MywyLjM2JiMxMDsmIzk7JiM5O2MwLjc5LTEuNDUsMS43Mi0yLjg2LDIuNzktNC4yM2MwLjAyLTAuMDIsMC4wNC0wLjA1LDAuMDUtMC4wN0MyMTEuMjMsMTY5LjcsMjEzLjE5LDE3MC40LDIxNS4wNiwxNzEuMjl6IE0yMTAuNjksMTY3LjYxJiMxMDsmIzk7JiM5O2MxLjI4LTEuNDksMi42NS0yLjksNC4wOS00LjI1YzMuMzgtMC45Miw2LjczLTEuNDUsMTAtMS41MWMtMC42NywxLjM0LTEuNTIsMi42NS0yLjU4LDMuOTJjLTEuNDUsMS43Mi0zLjE2LDMuMTctNS4wNCw0LjM1JiMxMDsmIzk7JiM5O0MyMTUuMTEsMTY5LjA1LDIxMi45MiwxNjguMTUsMjEwLjY5LDE2Ny42MXogTTIxNy4yMSwxNzIuNDFjNC42OCwyLjY0LDguNTUsNi4xMywxMC4xNiw3LjY4YzEyLjczLDEyLjI1LDIxLjk2LDMwLjIzLDI0Ljg2LDQ4LjI5JiMxMDsmIzk7JiM5O2MtMS4xMiwwLjg1LTIuMjYsMS42MS0zLjQsMi4yOWMtNi41NC0zLjQ0LTEyLjMtNy43Ny0xNy4wMy0xMi44NGMtNC41NS00Ljg4LTEwLjM1LTguODEtMTYuMzgtMTIuNDMmIzEwOyYjOTsmIzk7Yy0zLjU5LTcuNzItOC43Mi0xOS41LTEwLjEyLTI5LjQ0YzAuMDQtMC4wOSwwLjA4LTAuMTcsMC4xMi0wLjI2QzIwOS41MSwxNzUuNTQsMjEzLjYxLDE3NC40MiwyMTcuMjEsMTcyLjQxeiBNMjUyLjU1LDIzMC42MiYjMTA7JiM5OyYjOTtjMC4wOCwwLjY1LDAuMTYsMS4zMSwwLjIyLDEuOTdjLTAuNjItMC4yOC0xLjI0LTAuNTctMS44NS0wLjg3QzI1MS40NywyMzEuMzcsMjUyLjAxLDIzMSwyNTIuNTUsMjMwLjYyeiBNMjExLjYzLDIyMi41NyYjMTA7JiM5OyYjOTtjNSw2Ljg4LDExLjIxLDExLjQzLDE3LjkyLDEzLjE1YzIuMDEsMy4wNyw0LjA3LDYuMDMsNi4xOCw4Ljg1Yy05LjM4LTIuMzYtMTcuNDktOC4xMi0yMy45My0xNS4wNSYjMTA7JiM5OyYjOTtDMjEyLjA3LDIyNy4yLDIxMS45OSwyMjQuODcsMjExLjYzLDIyMi41N3ogTTIxNy41NiwyMDkuOTRsLTAuNTctMS4yYy0wLjAxLTAuMDItMC4wMi0wLjA0LTAuMDMtMC4wNiYjMTA7JiM5OyYjOTtjNC45NiwzLjExLDkuNjMsNi40OSwxMy4zNywxMC41YzQuNTksNC45MywxMC4xMyw5LjE4LDE2LjM4LDEyLjYxYy00LjU0LDIuMjItOS4yMSwzLjA4LTEzLjg0LDIuNTFjLTAuNy0wLjA5LTEuMzktMC4yLTIuMDgtMC4zNiYjMTA7JiM5OyYjOTtDMjI2LjA3LDIyNi42NCwyMjEuNjUsMjE4LjYyLDIxNy41NiwyMDkuOTR6IE0yMTUuMTgsMjA5LjZsMC41NywxLjJjMy43Nyw4LDcuODMsMTUuNDUsMTIuMTQsMjIuMzEmIzEwOyYjOTsmIzk7Yy02LjI2LTIuMjYtMTEuOTktNy4yNS0xNi40OC0xNC40NmMtMC41MS0wLjgxLTEtMS42NS0xLjQ4LTIuNWMtMC44OC0yLjM1LTEuOTktNC41OS0zLjI1LTYuNjVjLTEuMTUtMi43NC0yLjExLTUuNTktMi44My04LjUmIzEwOyYjOTsmIzk7YzEuMjksMC43NSwyLjU4LDEuNDksMy44NywyLjIyYzIuMDQsMS4xNyw0LjExLDIuMzUsNi4xNCwzLjU2QzIxNC4zNCwyMDcuODEsMjE0Ljc4LDIwOC43NSwyMTUuMTgsMjA5LjZ6IE0yMDQuMzYsMjA5LjU3JiMxMDsmIzk7JiM5O2MwLjE4LDAuMjgsMC4zNywwLjU3LDAuNTUsMC44NmMwLjk2LDIuMjcsMi4wNCw0LjQ3LDMuMjEsNi41NmMxLjIzLDMuMzQsMS45NSw2LjkxLDEuODQsMTAuNDRjLTMuODMtNC40OC02Ljk5LTkuMzMtOS4zNi0xNCYjMTA7JiM5OyYjOTtjLTIuMTQtNC4yLTQuMDUtOC44OC01LjM4LTEzLjYyQzE5OC44NiwyMDIuNTUsMjAyLjAyLDIwNiwyMDQuMzYsMjA5LjU3eiBNMTk0LjQ1LDE5Ni44NmMtMC4xNS0wLjY2LTAuMjktMS4zMi0wLjQxLTEuOTgmIzEwOyYjOTsmIzk7YzIuNCwxLjY3LDQuOTEsMy4yMyw3LjQ0LDQuNzRjMC4zMSwxLjQ2LDAuNjcsMi45MSwxLjEsNC4zM0MyMDAuMjQsMjAxLjI4LDE5Ny40OCwxOTguODMsMTk0LjQ1LDE5Ni44NnogTTE4Ny43NCwyNDQuMDImIzEwOyYjOTsmIzk7YzEuNzIsMS4yMSwzLjM3LDIuNDQsNC45NSwzLjdjLTYuNDUsMS45Ny0xMy44MiwyLjEtMjAuODksMC45NWMtMy43Ny01LjY1LTYuNjYtMTEuNzUtOC40OC0xNy45NiYjMTA7JiM5OyYjOTtDMTcxLjk4LDIzNC4zMSwxODAuMzUsMjM4LjgzLDE4Ny43NCwyNDQuMDJ6IE0xOTQuNjEsMjQ5LjI4YzEwLjIyLDguNTYsMTcuMzUsMTguMTcsMjEuMDIsMjguMjUmIzEwOyYjOTsmIzk7Yy05LjQ3LTEuMDEtMTguNjctNS4yMS0yNS42OS0xMC4xN2MtNi40MS00LjUzLTEyLjAzLTEwLjE2LTE2LjU2LTE2LjQyQzE4MC40OCwyNTEuOSwxODcuOTgsMjUxLjYyLDE5NC42MSwyNDkuMjh6IE0yMTYuMzMsMjc5LjYmIzEwOyYjOTsmIzk7YzAuMTksMC42MSwwLjM4LDEuMjMsMC41NCwxLjg1Yy0wLjg4LTAuODMtMS44NS0xLjU2LTIuOTEtMi4xMUMyMTQuNzUsMjc5LjQ0LDIxNS41NCwyNzkuNTMsMjE2LjMzLDI3OS42eiBNMTk2LjcyLDI0OC40NSYjMTA7JiM5OyYjOTtjMy43Ni0xLjYzLDcuMTctNC4wMSw5Ljk4LTcuMjhjMi40NS0yLjg2LDMuOTUtNS45OSw0LjY5LTkuMjFjNy4wNSw3LjI1LDE1Ljk1LDEzLjEyLDI2LjIzLDE1LjA2YzIuODMsMy42Myw1Ljc1LDcuMDMsOC43NSwxMC4yMSYjMTA7JiM5OyYjOTtjMC43MywwLjc4LDEuNTQsMS42MywyLjQyLDIuNTRjLTIuODgsNi4wNi03LjM2LDExLjI0LTEzLjkxLDE0LjU1Yy01LjQ1LDIuNzUtMTEuMjgsMy43LTE3LjA2LDMuMzkmIzEwOyYjOTsmIzk7QzIxNC4yMSwyNjcuMjYsMjA3LjA2LDI1Ny4zMSwxOTYuNzIsMjQ4LjQ1eiBNMjQ3LjgxLDI1NS44NWMtMi40OS0yLjY0LTQuOTMtNS40NC03LjMtOC4zOWMwLjAzLDAsMC4wNiwwLjAxLDAuMSwwLjAxJiMxMDsmIzk7JiM5O2M0LjIyLDAuNDYsOC4xOCwwLjM5LDExLjg2LTAuMjNjLTAuNTQsMy42NC0xLjQ1LDcuMjEtMi44MiwxMC41NUMyNDguOTksMjU3LjEsMjQ4LjM4LDI1Ni40NSwyNDcuODEsMjU1Ljg1eiBNMjQwLjgyLDI0NS40OCYjMTA7JiM5OyYjOTtjLTAuNzEtMC4wOC0xLjQxLTAuMTctMi4xLTAuMjljLTIuMTktMi44NC00LjMzLTUuODItNi40MS04LjkzYzAuMTEsMC4wMSwwLjIxLDAuMDMsMC4zMiwwLjA0YzUuNDcsMC42NywxMC45Ni0wLjQ4LDE2LjI0LTMuMzYmIzEwOyYjOTsmIzk7YzEuMzMsMC42OCwyLjY5LDEuMzIsNC4wOCwxLjkyYzAuMjEsMy4zOCwwLjE1LDYuODUtMC4yMiwxMC4yOUMyNDkuMDYsMjQ1LjgzLDI0NS4wOCwyNDUuOTUsMjQwLjgyLDI0NS40OHogTTIyNi41NiwxNTUuNzcmIzEwOyYjOTsmIzk7Yy0wLjUyLTAuMDMtMS4wNC0wLjA2LTEuNTYtMC4wOWMwLjU0LTAuMzMsMS4wOS0wLjY2LDEuNjUtMC45OEMyMjYuNjMsMTU1LjA2LDIyNi42LDE1NS40MiwyMjYuNTYsMTU1Ljc3eiBNMjI2LjIzLDE1Ny43NiYjMTA7JiM5OyYjOTtjLTAuMTYsMC43LTAuMzYsMS40LTAuNiwyLjA5Yy0wLjA4LDAtMC4xNSwwLTAuMjMsMGMtMi40MiwwLTQuODcsMC4yNC03LjM0LDAuNjljMS4yOS0xLjAzLDIuNjMtMi4wMiw0LjAxLTIuOTYmIzEwOyYjOTsmIzk7QzIyMy40NSwxNTcuNjEsMjI0Ljg0LDE1Ny42NywyMjYuMjMsMTU3Ljc2eiBNMjEzLjg2LDE2MS41Yy0yLjYsMC43Mi01LjE5LDEuNjUtNy43NiwyLjc3YzAuMjMtMC41NiwwLjUtMS4wOSwwLjgxLTEuNTkmIzEwOyYjOTsmIzk7YzIuMDUtMy4zLDUuODItNS4wMiwxMS4yMi01LjEyYzAuMTgsMCwwLjM2LTAuMDEsMC41NC0wLjAxQzIxNi45OSwxNTguOCwyMTUuMzksMTYwLjExLDIxMy44NiwxNjEuNXogTTIxMC42MiwxNjQuNjkmIzEwOyYjOTsmIzk7Yy0wLjc2LDAuODEtMS40OSwxLjY1LTIuMiwyLjUxYy0wLjY1LTAuMDgtMS4zMS0wLjEyLTEuOTYtMC4xMmMtMC40LDAtMC44LDAuMDItMS4yLDAuMDVjMC4wMS0wLjA3LDAuMDMtMC4xNCwwLjA0LTAuMiYjMTA7JiM5OyYjOTtDMjA3LjA3LDE2Ni4wOSwyMDguODQsMTY1LjM0LDIxMC42MiwxNjQuNjl6IE0yMDUuMywxNjkuMTRjMC41NS0wLjA1LDEuMS0wLjA2LDEuNjUtMC4wNGMtMC43NCwxLjAyLTEuNDEsMi4wNi0yLjAyLDMuMTImIzEwOyYjOTsmIzk7Yy0wLjA0LTEuMDUtMC4wMy0yLjA3LDAuMDUtMy4wNEMyMDUuMSwxNjkuMTYsMjA1LjIsMTY5LjE1LDIwNS4zLDE2OS4xNHogTTIxMi40LDIwMy42MWMtMS4yMy0wLjcxLTIuNDYtMS40Mi0zLjY5LTIuMTImIzEwOyYjOTsmIzk7Yy0xLjgxLTEuMDQtMy42NC0yLjA4LTUuNDQtMy4xNWMtMS4yLTYuMjYtMS4xOS0xMi43MSwwLjY3LTE4Ljc4QzIwNS42NSwxODcuODksMjA5LjMzLDE5Ni44MywyMTIuNCwyMDMuNjF6IE0xOTEuMzUsMTkwLjM5JiMxMDsmIzk7JiM5O2MtMC45Ni0wLjc2LTEuOS0xLjU1LTIuOC0yLjM2Yy0wLjkxLTIuNC0yLjE3LTQuNzktMy43LTcuMTNjMi45NS0yLjY4LDYuMDktNS4xOSw5LjMzLTcuNDZjMC4yLDAuMDksMC40LDAuMTksMC42LDAuMjgmIzEwOyYjOTsmIzk7QzE5MS41NywxNzguNTcsMTkwLjg0LDE4NC41MSwxOTEuMzUsMTkwLjM5eiBNMTgzLjY1LDE3OS4xNGMtMS43NS0yLjQ0LTMuNzctNC44Mi01Ljk5LTcuMDljLTMuMDItOS4yNS0xLjEyLTIwLjU1LDAuOTgtMzAuOTMmIzEwOyYjOTsmIzk7YzAuMDksMS40MywwLjIsMi44OSwwLjMzLDQuMzljMS4xOCwxMy4xLDUuNTksMjIuMTIsMTMuMTMsMjYuOGMwLDAsMC4wMSwwLDAuMDEsMC4wMUMxODkuMTcsMTc0LjQsMTg2LjM0LDE3Ni43LDE4My42NSwxNzkuMTR6JiMxMDsmIzk7JiM5OyBNMTgwLjU0LDE4Mi4xYy0zLjc5LDMuNzYtNy4yMiw3Ljc4LTEwLjE1LDExLjg5Yy05LjIsNC40OS0xMS44MiwxNS43MS0xMS4wOSwyNS45MmMtMC4yNiwxLjY2LTAuNDUsMy4zMy0wLjU3LDUuMDEmIzEwOyYjOTsmIzk7Yy0wLjksMC4zMS0xLjgsMC42MS0yLjcsMC45Yy05LjA5LTMuMTItMTguMjgtNS4xOC0yNi44MS01LjkxYy0xLjcyLTIuNzctMy4yMy01LjctNC41MS04Ljc1Yy00Ljg2LTExLjU1LTguMDItNDEuMzgsMS42MS01My41MSYjMTA7JiM5OyYjOTtjMy41Ni00LjQ5LDguNi02LjIxLDE0Ljk5LTUuMTJjOS4zMSwxLjU5LDI0LjE2LDEwLjA3LDM0LjY1LDIwLjY5YzAuMDIsMC4wNiwwLjA0LDAuMTIsMC4wNywwLjE5JiMxMDsmIzk7JiM5O0MxNzcuMTYsMTc2LjYyLDE3OC43LDE3OS40OSwxODAuNTQsMTgyLjF6IE0xMzAuNjgsMjMxLjQ2Yy0zLjM4LDAuNDktNi4yMiwwLjgxLTguMjIsMWMtMS4zNC0zLjU3LTIuODEtNy4xNC00LjM4LTEwLjY4JiMxMDsmIzk7JiM5O2MyLjc2LTAuMjEsNS41NS0wLjIxLDguMjItMC4wN0MxMjguNDYsMjI0Ljc2LDEyOS45OSwyMjguMTYsMTMwLjY4LDIzMS40NnogTTEwNS4wMSwyNDUuMDhjLTIuMzYtMS4yMS00LjUyLTIuODctNi40Ni00Ljk1JiMxMDsmIzk7JiM5O2MtMC45Ny0xLjA1LTEuODctMi4xNy0yLjY4LTMuMzVjMC4xMS0wLjQ5LDAuMjUtMC45NywwLjQtMS40NGMzLjQtMC4wMyw2LjY3LTAuMDgsOS43My0wLjE0Yy0wLjY1LDIuNTQtMS4xNSw1LjE1LTEuMTgsNy44NSYjMTA7JiM5OyYjOTtDMTA0LjgxLDI0My42OCwxMDQuOSwyNDQuMzYsMTA1LjAxLDI0NS4wOHogTTk3LjA0LDIzMy4zM2MyLjMtNS4wOCw2LjY0LTguMSwxMS43OS05LjhjLTAuMjcsMS45LTAuNjUsMy43OS0xLjE2LDUuNjYmIzEwOyYjOTsmIzk7Yy0wLjIxLDAuNzktMC40NCwxLjU3LTAuNjYsMi4zNWMtMC4xNiwwLjU1LTAuMzEsMS4xLTAuNDcsMS42NUMxMDMuNTYsMjMzLjI1LDEwMC4zNiwyMzMuMjksOTcuMDQsMjMzLjMzeiBNMTA4LjA3LDIzNS4xNiYjMTA7JiM5OyYjOTtjNS40LTAuMTIsOS45Ny0wLjMsMTMuMDUtMC41NmMxLjM4LDMuNzUsMi42Miw3LjUxLDMuNzMsMTEuMjdjLTIuMTYsMS4wNS00Ljg2LDEuNjQtOC4wNCwxLjczYy0zLjQ5LDAuMS02LjY5LTAuNDItOS42Mi0xLjU0JiMxMDsmIzk7JiM5O2MtMC4wNC0wLjI4LTAuMDgtMC41NS0wLjEzLTAuODJjLTAuMTMtMC44MS0wLjI1LTEuNTctMC4yNC0yLjE3QzEwNi44NSwyNDAuMzcsMTA3LjM4LDIzNy43OCwxMDguMDcsMjM1LjE2eiBNMTE3LjIxLDIxOS44NSYjMTA7JiM5OyYjOTtjLTEuMTktMi42LTIuNDQtNS4xOC0zLjc1LTcuNzZjNC4zNywxLjI3LDguMjQsNC4wNiwxMS4yMyw3LjU1QzEyMi4wNCwyMTkuNTcsMTE5LjU0LDIxOS42MywxMTcuMjEsMjE5Ljg1eiBNMTE1Ljk4LDIyMS45OSYjMTA7JiM5OyYjOTtjMS41OSwzLjU0LDMuMDYsNy4wOSw0LjQxLDEwLjY2Yy0yLjksMC4yMi02Ljk5LDAuMzgtMTEuNzcsMC41YzAuMS0wLjM1LDAuMi0wLjcsMC4zLTEuMDZjMC4yMy0wLjc5LDAuNDUtMS41OCwwLjY3LTIuMzgmIzEwOyYjOTsmIzk7YzAuNjEtMi4yNSwxLjA0LTQuNTIsMS4zMy02Ljc5QzExMi41NiwyMjIuNSwxMTQuMjYsMjIyLjIsMTE1Ljk4LDIyMS45OXogTTEwOS4wOSwyMjEuMzRjLTYuOTUsMi4wNy0xMS43Myw2LTE0LjExLDExLjY4JiMxMDsmIzk7JiM5O2MtMC4wNSwwLjExLTAuMDksMC4yMi0wLjEzLDAuMzJjLTAuMzUsMC0wLjcsMC4wMS0xLjA0LDAuMDFjLTEuNzQtMy4yOS0yLjk5LTYuOS0zLjg1LTEwLjU2YzAuNzMtMS44NywxLjY0LTMuNTcsMi43NS01LjA1JiMxMDsmIzk7JiM5O2MzLjY2LTQuODksOS4yNS03LjAzLDE2LjYxLTYuMzlDMTA5LjQ3LDIxNC42NSwxMDkuNDMsMjE4LDEwOS4wOSwyMjEuMzR6IE05NS40MiwyMzkuNTRjMC41MywwLjY4LDEuMDksMS4zMywxLjY3LDEuOTYmIzEwOyYjOTsmIzk7YzIuNDQsMi42Miw1LjE5LDQuNjEsOC4yNSw1Ljk3YzAuMDcsMC45LDAuMDIsMS43Mi0wLjMzLDIuMjhjLTAuNSwwLjc5LTEuNTgsMS4xNi0yLjczLDEuNTZjLTAuOTgsMC4zNC0xLjk5LDAuNjgtMi44LDEuMzQmIzEwOyYjOTsmIzk7Yy0wLjczLDAuNTktMS4zNCwxLjIxLTEuODMsMS44NUM5NS45NSwyNDkuNDEsOTQuOTUsMjQ0LjMsOTUuNDIsMjM5LjU0eiBNMTAwLjc0LDI1NC4yYzAuNTQtMC40MywxLjM0LTAuNzEsMi4xOS0xJiMxMDsmIzk7JiM5O2MxLjM2LTAuNDcsMi45LTEsMy43Ny0yLjM5YzAuNDgtMC43NiwwLjY1LTEuNjQsMC42Ni0yLjU1YzIuOTIsMC45OSw2LjA5LDEuNDMsOS41LDEuMzVjMy4zMi0wLjA5LDYuMTktMC43LDguNTUtMS43OSYjMTA7JiM5OyYjOTtjMCwwLjAxLDAsMC4wMSwwLDAuMDJjMi42MSw5LjIyLDYuOTcsMjQuNjQsMi44NiwzNS42MWMtMS40OSwzLjk3LTMuNCw2LjAzLTUuNjcsNi4xM2MtMC4wNiwwLTAuMTIsMC0wLjE4LDAmIzEwOyYjOTsmIzk7Yy03LjI4LDAtMTcuMjUtMTcuNjktMjAuMi0yMy45NGMtMS4zNC0yLjg0LTIuNjQtNS43OS0zLjc1LTguNzdDOTguOTgsMjU1LjksOTkuNzEsMjU1LjAzLDEwMC43NCwyNTQuMnogTTEyMy4xOCwyMzQuNCYjMTA7JiM5OyYjOTtjMS45OS0wLjIsNC42Ni0wLjUxLDcuODEtMC45N2MwLjEsMC44OSwwLjEyLDEuNzcsMC4wOCwyLjYyYy0wLjE5LDMuODQtMS43Miw2Ljc5LTQuNDQsOC43NSYjMTA7JiM5OyYjOTtDMTI1LjU5LDI0MS4zNCwxMjQuNDQsMjM3Ljg3LDEyMy4xOCwyMzQuNHogTTEzMC45NSwyMjUuOThjMS4yNiwxLjY3LDIuNjEsMy4yOCw0LjAyLDQuODJjLTAuOCwwLjEzLTEuNTcsMC4yNi0yLjMzLDAuMzgmIzEwOyYjOTsmIzk7QzEzMi4yOCwyMjkuNDUsMTMxLjcxLDIyNy43LDEzMC45NSwyMjUuOTh6IE0xMzAuNiwyMjIuMDVjNy4xLDAuNzMsMTQuNjEsMi4zOCwyMi4xMiw0Ljc4Yy01LjMzLDEuNTQtMTAuNjQsMi43LTE1LjM5LDMuNTYmIzEwOyYjOTsmIzk7QzEzNC44NiwyMjcuODEsMTMyLjYxLDIyNS4wMiwxMzAuNiwyMjIuMDV6IE0xNTUuOTQsMjI3Ljg5YzAuODksMC4zMSwxLjc3LDAuNjMsMi42NSwwLjk2Yy0wLjAxLDUuNjIsMC44LDExLjMyLDIuNCwxNyYjMTA7JiM5OyYjOTtjLTguMjYtMy0xNS43My03LjczLTIxLjk3LTEzLjc3QzE0NC4yOCwyMzEuMDksMTUwLjEzLDIyOS43MywxNTUuOTQsMjI3Ljg5eiBNMTYwLjYzLDIyOS42M2MwLjEyLDAuMDUsMC4yMywwLjA5LDAuMzUsMC4xNCYjMTA7JiM5OyYjOTtjMS42Nyw2LjMzLDQuNDUsMTIuNTcsOC4xMSwxOC40Yy0xLjkzLTAuNDEtMy44My0wLjkxLTUuNjctMS40OUMxNjEuNzEsMjQxLjEyLDE2MC43MywyMzUuMzksMTYwLjYzLDIyOS42M3ogTTE3MC42NCwyNTAuNTEmIzEwOyYjOTsmIzk7YzQuODUsNy4wOCwxMS4wMiwxMy40NSwxOC4xNSwxOC40OGM1LjU0LDMuOTIsMTIuNCw3LjM3LDE5LjczLDkuMjVjLTEuMTQsMC4xMy0yLjI4LDAuNDktMy40MSwxLjA3JiMxMDsmIzk7JiM5O2MtNC4yMSwyLjE1LTYuMiw2LjMxLTYuOTYsMTAuOTZjLTE1LjMxLTkuMjItMjguMDQtMjQuMzMtMzMuOTUtNDEuMjlDMTY2LjI1LDI0OS42LDE2OC40MSwyNTAuMTEsMTcwLjY0LDI1MC41MXogTTE5OS44MiwyOTMuNTYmIzEwOyYjOTsmIzk7YzAuOTYsMC41MiwxLjkyLDEuMDIsMi45LDEuNWMzLjc0LDEuODQsOS4wMSw0LjAxLDE1LjA3LDUuMzFjLTEuODEsNy42Ni02LjkyLDEzLjA2LTEzLjMyLDE2Ljg3Yy0xLjA3LTIuMzQtMS45Ni00Ljc4LTIuNjQtNy4yOSYjMTA7JiM5OyYjOTtDMjAxLjIzLDMwNy43MywxOTkuNDQsMzAwLjQyLDE5OS44MiwyOTMuNTZ6IE0yMDMuNTksMjkzLjI3Yy0xLjItMC41OS0yLjQtMS4yMi0zLjU4LTEuODhjMC41OC00LjQxLDIuMjYtOC4zNyw1Ljk5LTEwLjI4JiMxMDsmIzk7JiM5O2MyLjA2LTEuMDYsNC4xNC0xLjE5LDYuMTYtMC40YzIuMywwLjksNC4yMiwyLjg1LDUuNjYsNC45OWMwLjU2LDMuMTksMC43OCw2LjQxLDAuNjQsOS42NGMtMC4wNCwxLjA2LTAuMTUsMi4wOC0wLjMsMy4wNyYjMTA7JiM5OyYjOTtDMjEyLjMyLDI5Ny4xNSwyMDcuMjEsMjk1LjA0LDIwMy41OSwyOTMuMjd6IE0yNDUuMzksMjk1LjFjMC4wNi05LjM4LDAuOTktMjIuNTIsOC4zMS0yOC4yNmMwLjQ4LTAuMzgsMC45OC0wLjcxLDEuNDctMC45OSYjMTA7JiM5OyYjOTtjMy4wMiwyLjU5LDYuMzksNS4wNSw5Ljk3LDYuNzdjLTQuMTksOC43OS0xMC4zMywxNy43OC0xOS43NiwyMi43OUMyNDUuMzgsMjk1LjMxLDI0NS4zOCwyOTUuMiwyNDUuMzksMjk1LjF6IE0yNTcuMjYsMjY1JiMxMDsmIzk7JiM5O2MxLjA3LTAuMjgsMi4xNy0wLjMzLDMuMjctMC4xNWMyLjI1LDAuMzcsNC40OSwxLjczLDYuMzgsMy44M2MtMC4zLDAuNy0wLjYxLDEuNDItMC45MywyLjEzJiMxMDsmIzk7JiM5O0MyNjIuOTEsMjY5LjMzLDI1OS45NiwyNjcuMjQsMjU3LjI2LDI2NXogTTI2MC44NiwyNjIuODhjLTAuNTMtMC4wOS0xLjA2LTAuMTMtMS42LTAuMTNjLTEuMjcsMC0yLjUzLDAuMjUtMy43NiwwLjc0JiMxMDsmIzk7JiM5O2MtMS41Ni0xLjM5LTMuMDItMi44MS00LjM0LTQuMTRjMS43LTMuOTUsMi43OS04LjIsMy4zNy0xMi41MmM1LjExLTEuMTgsOS42Ni0zLjQ3LDEzLjYyLTYuODVjMi4xOCwwLjYyLDQuNTgsMS4yNSw3LjE3LDEuODUmIzEwOyYjOTsmIzk7Yy0xLjYsNi45My0zLjQ4LDEzLjQ4LTUuNjQsMTkuNjJjLTAuNTgsMS42Ni0xLjIyLDMuNDEtMS45NCw1LjIxQzI2NS42OCwyNjQuNjEsMjYzLjI5LDI2My4yNywyNjAuODYsMjYyLjg4eiBNMjY4LjMyLDI3MC40OCYjMTA7JiM5OyYjOTtjMC4wNiwwLjA4LDAuMTEsMC4xNywwLjE3LDAuMjVjMC4zMSwwLjQ3LDAuNiwwLjk1LDAuODgsMS40M2MtMC41Mi0wLjE2LTEuMDQtMC4zNS0xLjU1LTAuNTUmIzEwOyYjOTsmIzk7QzI2Ny45OSwyNzEuMjQsMjY4LjE1LDI3MC44NiwyNjguMzIsMjcwLjQ4eiBNMjY5LjIyLDI2OC4zM2MwLjg4LTIuMTYsMS42Ni00LjI2LDIuMzUtNi4yMmMyLjE4LTYuMjIsNC4wOC0xMi44NCw1LjctMTkuODUmIzEwOyYjOTsmIzk7YzguMTYsMS43NywxOC4wNCwzLjEzLDI5LjA0LDIuN2MxLjY3LDQuMzksMi41OSw4Ljg5LDIuODksMTMuNGMtMC4xNCwwLjA4LTAuMjksMC4xNy0wLjQ0LDAuMjVjLTIuMzUsMS4zMy00Ljc3LDIuMjctNy4xMSwzLjE4JiMxMDsmIzk7JiM5O2MtMy42NCwxLjQyLTcuNDEsMi44OS0xMC43OCw1LjhjLTMuNjcsMy4xNy04Ljc4LDQuOTktMTUuMTgsNS40MmMtMS4yNCwwLjA4LTIuNDcsMC4wMS0zLjcxLTAuMmMtMC41NC0xLjA3LTEuMTUtMi4xMi0xLjgzLTMuMTYmIzEwOyYjOTsmIzk7QzI2OS44NiwyNjkuMTgsMjY5LjU1LDI2OC43NSwyNjkuMjIsMjY4LjMzeiBNMjc3LjcyLDI0MC4zYzEuNTgtNy4xNSwyLjg3LTE0LjY5LDMuODYtMjIuNTdjMS4xOS0zLjkyLDIuMDYtOC4wNiwyLjY0LTEyLjMmIzEwOyYjOTsmIzk7YzguNjgsMTEuNzEsMTUuODgsMjQuMzcsMjEuMjksMzcuNTFDMjk0Ljk4LDI0My4zLDI4NS41NSwyNDEuOTksMjc3LjcyLDI0MC4zeiBNMjc4LjY1LDE3Mi41MmMwLjI5LTIuMTQsMC43Mi00LjMsMS4xNy02LjQzJiMxMDsmIzk7JiM5O2MxLjM2LDUuMjcsMi4zNiwxMS4zLDIuODQsMTcuNjNDMjgxLjk1LDE3OS43LDI4MC43LDE3NS44OCwyNzguNjUsMTcyLjUyeiBNMjY2LjY1LDExOS4yMmMxMi4zLDcuNjIsMTIuNzUsMTUuMzcsMTMuMDUsMjMuNTUmIzEwOyYjOTsmIzk7Yy0yLjY5LTAuNi01LjQ2LTEtOC4yNy0xLjJjLTYuNDYtMTAuOTgtMTQuNzYtMjAuNzgtMjQuMzgtMjguNzJDMjU0LjQyLDExNC40MywyNjIuMzQsMTE2LjU2LDI2Ni42NSwxMTkuMjJ6IE0yNDIuNywxMTEuOTYmIzEwOyYjOTsmIzk7YzEwLjQyLDcuOTMsMTkuNCwxOC4wMywyNi4zMywyOS40OWMtMS42NC0wLjA1LTMuMjktMC4wMy00Ljk1LDAuMDdjLTEwLjkxLDAuNjEtMjMuOTIsMy44NS0zNS40OCw5Ljg2JiMxMDsmIzk7JiM5O2MtMC42Ny03LjMxLTQuNjMtMTQuNTgtOS41MS0yMC4zYy03LjkyLTkuMjctMTYuNDEtMTIuNDktMjUuODYtMTQuNTZjMy40OC0xLjI5LDcuNDktMi4xNSwxMS44Mi0zLjA3JiMxMDsmIzk7JiM5O2MxMi44MS0yLjc0LDIzLjY0LTQuMTMsMzQuODQtMi4wM0MyNDAuNzksMTExLjU5LDI0MS43MywxMTEuNzcsMjQyLjcsMTExLjk2eiBNMTk4LjAzLDk2Ljk0YzE0Ljc0LTMuNTUsMzEuNTksNS44Niw0MC44OSwxMi4yOCYjMTA7JiM5OyYjOTtjLTExLjA1LTEuODItMjEuNzQtMC40MS0zNC4yOSwyLjI3Yy01LjQ2LDEuMTctMTAuNTksMi4yNi0xNC44Nyw0LjMyYy0xLjUtMC4yOS0zLjAyLTAuNTYtNC41Ni0wLjg0JiMxMDsmIzk7JiM5O2MtMC44OC0wLjE2LTEuNzYtMC4zMi0yLjY2LTAuNDhDMTg0Ljk0LDEwNS43NiwxODkuNjIsOTguOTYsMTk4LjAzLDk2Ljk0eiBNMTgyLjA2LDExNi40M2MwLjk0LDAuMTcsMS44NywwLjM0LDIuNzksMC41MSYjMTA7JiM5OyYjOTtjMC43NCwwLjEzLDEuNDcsMC4yNywyLjIsMC40Yy0yLjU2LDEuNjgtNC42OCwzLjg3LTYuMjMsNi44OEMxODEuMDgsMTIxLjUzLDE4MS40OSwxMTguOTEsMTgyLjA2LDExNi40M3ogTTE4MC42MywxMzEuMiYjMTA7JiM5OyYjOTtjMS4yNy02Ljk5LDQuNjYtMTAuODQsOS40My0xMy4zYzEwLjUsMi4wNSwxOS4yMSw0Ljc2LDI3LjUxLDE0LjQ4YzQuODMsNS42NSw4LjcyLDEyLjksOS4wOSwyMC4wNGMtMS43NywwLjk4LTMuNDksMi4wMy01LjE2LDMuMTQmIzEwOyYjOTsmIzk7Yy0xLjE0LTAuMDItMi4yNy0wLjAyLTMuNCwwYy02LjEyLDAuMTEtMTAuNDUsMi4xNS0xMi44OCw2LjA2Yy0wLjcxLDEuMTQtMS4yMywyLjQxLTEuNTksMy43OGMtMy4zMSwxLjYtNi41NiwzLjUtOS43MSw1LjY0JiMxMDsmIzk7JiM5O2MtMC4yNi0wLjE0LTAuNTEtMC4yOS0wLjc2LTAuNDVjLTYuOTctNC4zMy0xMS4wNy0xMi44NC0xMi4xOS0yNS4yOGMtMC4zNy00LjE3LTAuNi04LjU1LTAuNTctMTIuOSYjMTA7JiM5OyYjOTtDMTgwLjQ4LDEzMi4wMSwxODAuNTUsMTMxLjYxLDE4MC42MywxMzEuMnogTTEwOC4yMiwxODQuNjljLTAuNzItMTAuMjksMy44OC0xNy40OCw4Ljc1LTI1LjA4YzQuMjQtNi42Myw4LjYzLTEzLjQ4LDEwLjAyLTIyLjkzJiMxMDsmIzk7JiM5O2MwLjI1LTEuNjksMC40LTMuNDksMC41Ny01LjQxYzAuNTgtNi43LDEuMjMtMTQuMjksNi4zNC0xOC4yMWM4Ljg2LTYuOCwyNS40Mi0yLjIzLDM1LjMyLDAuNWwwLjM5LDAuMTEmIzEwOyYjOTsmIzk7YzMuNjYsMS4wMSw3LjEzLDEuNzUsMTAuNDksMi4zOWMtMS4wNyw0LjY4LTEuNjQsMTAuMDgtMS43LDE2LjE5Yy0wLjM0LDEuNzYtMC43MSwzLjU4LTEuMSw1LjQ5Yy0yLjExLDEwLjIzLTQuNDYsMjEuNjYtMi40MSwzMS42JiMxMDsmIzk7JiM5O2MtMTAuNTItOS43Ny0yNC4xNi0xNy4yMi0zMy4yNC0xOC43N2MtNy4xNi0xLjIyLTEyLjg1LDAuNzUtMTYuODksNS44NWMtMTAuODksMTMuNzMtNi4yNiw0NS4xNS0xLjg4LDU1LjUzJiMxMDsmIzk7JiM5O2MwLjg2LDIuMDQsMS44MSw0LjAyLDIuODYsNS45NGMtMy41OC00LjAxLTguMjQtNy4xLTEzLjQ4LTguMTRjLTAuMzgtMC43My0wLjc3LTEuNDYtMS4xNi0yLjE5Yy0wLjM4LTQuNTYtMS4wMy04Ljk0LTEuNjItMTIuOTQmIzEwOyYjOTsmIzk7QzEwOC45MywxOTEsMTA4LjQyLDE4Ny41OSwxMDguMjIsMTg0LjY5eiBNODguNjgsMjAzLjRjMC4wNC0wLjM5LDAuMDgtMC45MSwwLjEzLTEuNTNjMC4zLTMuODQsMS4xLTE0LjA1LDQuMzktMTQuOTcmIzEwOyYjOTsmIzk7YzAuMTctMC4wNSwwLjM1LTAuMDcsMC41My0wLjA3YzMuNjEsMCw4LjY0LDkuMjMsMTAuNiwxMi44MWMwLjM4LDAuNywwLjY5LDEuMjcsMC45MiwxLjY2YzEuMzQsMi4yNywyLjYzLDQuNTUsMy44Nyw2Ljg0JiMxMDsmIzk7JiM5O2MwLjAzLDAuNCwwLjA2LDAuODEsMC4wOSwxLjIxYy03Ljk2LTAuNjMtMTQuMDUsMS43OS0xOC4xLDcuMjFjLTAuNjgsMC45LTEuMjgsMS44OC0xLjgzLDIuOTImIzEwOyYjOTsmIzk7Qzg4LjMsMjEzLjc2LDg4LjIxLDIwOC4wOSw4OC42OCwyMDMuNHogTTg4Ljg0LDIyNi4zMWMwLjczLDIuNDMsMS42Myw0LjgxLDIuNzUsNy4wN2MtMS4zLDAuMDEtMi42MSwwLjAyLTMuOTIsMC4wMyYjMTA7JiM5OyYjOTtDODcuODgsMjMwLjkxLDg4LjI2LDIyOC41Myw4OC44NCwyMjYuMzF6IE05NS41LDI3OS4wOWMtMy42OC04LjQtOC44My0yNy43OS03Ljk4LTQzLjY5YzEuNzItMC4wMSwzLjQzLTAuMDIsNS4xMi0wLjA0JiMxMDsmIzk7JiM5O2MwLjM1LDAuNjIsMC43MiwxLjIyLDEuMSwxLjgxYy0xLjIsNi4yMSwwLjIxLDEzLDIuNTksMTkuNmMtMS4xMywyLjg1LTAuNzQsNS45Mi0wLjE5LDguNzNjMy41NSwxOC4zMiwxNi44MiwzNy4xOSwyOS4xMSw0OS45MyYjMTA7JiM5OyYjOTtDMTExLjksMzEwLjM3LDEwMS45OCwyOTMuODgsOTUuNSwyNzkuMDl6IE0xMzEuOTIsMzE4Ljk1YzEuNjMsMC4xMSwzLjI4LDAuMDcsNC45My0wLjE0YzAuNzEsMS4zNCwxLjUsMi42NiwyLjM4LDMuOTUmIzEwOyYjOTsmIzk7QzEzNi41NSwzMjEuNzcsMTM0LjA2LDMyMC41MiwxMzEuOTIsMzE4Ljk1eiBNMTM0Ljc0LDMwMi4zNGMwLjIzLTExLjkzLDQuODgtMjcuMTgsMTcuMjItMzAuOWMxLjQ1LTAuNDQsMi45MS0wLjY1LDQuMzUtMC42NSYjMTA7JiM5OyYjOTtjMi4zMSwwLDQuNTUsMC41Niw2LjU2LDEuNjZjMy4xNSwxLjcyLDUuNDQsNC42Niw2LjQ2LDguMjZjMS41NSw1LjQ1LDAuNTgsMTEuMDYtMi44NiwxNi42NmMtNi4zMSwxMC4yNS0xOC45OCwxNy40Mi0yOC4yNSwxOS4yMSYjMTA7JiM5OyYjOTtjLTAuMDgsMC4wMS0wLjE2LDAuMDMtMC4yNCwwLjA0QzEzNS43OCwzMTIuMDEsMTM0LjY0LDMwNy4xNiwxMzQuNzQsMzAyLjM0eiBNMTM4Ljk0LDMxOC40NmM5LjY2LTEuOTgsMjIuNy05LjQ0LDI5LjIzLTIwLjA1JiMxMDsmIzk7JiM5O2MzLjctNi4wMSw0Ljc3LTEyLjMyLDMuMDgtMTguMjVjLTEuMTctNC4xMi0zLjgxLTcuNDktNy40My05LjQ3Yy0zLjc0LTIuMDUtOC4xNi0yLjQ2LTEyLjQ1LTEuMTcmIzEwOyYjOTsmIzk7Yy0xMy4zNyw0LjAzLTE4LjQsMjAuMTctMTguNjUsMzIuNzdjLTAuMDksNC45NCwxLjAyLDkuODksMy4xOCwxNC42MWMtMi4zMiwwLjIyLTQuNTYsMC4xLTYuNzItMC4zMyYjMTA7JiM5OyYjOTtjLTEyLjczLTEyLjQ2LTI3LjM5LTMyLjMtMzEuMS01MS40NGMtMC4zNi0xLjg2LTAuNTYtMy41MS0wLjQ4LTQuOThjMC44OCwyLjE1LDEuODMsNC4yNywyLjgsNi4zMyYjMTA7JiM5OyYjOTtjMC4xMiwwLjI1LDExLjkzLDI1LjA4LDIyLjAyLDI1LjA4YzAuMDgsMCwwLjE3LDAsMC4yNSwwYzMuMTUtMC4xMyw1LjY2LTIuNjIsNy40Ni03LjQyYzQuMzQtMTEuNTgsMC4wNC0yNi43OS0yLjgxLTM2Ljg2JiMxMDsmIzk7JiM5O2MtMC4wNC0wLjE1LTAuMDktMC4zLTAuMTMtMC40NWMzLjU3LTIuMjksNS42Mi01LjkyLDUuODUtMTAuNjdjMC4wNS0wLjk4LDAuMDEtMS45OS0wLjExLTMuMDJjMS4xNy0wLjE4LDIuNC0wLjM5LDMuNjYtMC42MSYjMTA7JiM5OyYjOTtjNi44NCw2LjkxLDE1LjIsMTIuMjYsMjQuNSwxNS41YzAuMTksMC4wNywwLjM4LDAuMTMsMC41OCwwLjJjMS4wMywzLjIxLDIuMzIsNi40LDMuODcsOS41NWM2Ljk4LDE0LjI4LDE4LjU4LDI2LjY3LDMyLjI5LDM0LjY4JiMxMDsmIzk7JiM5O2MtMC42MSw3LjA3LDEuMTQsMTQuNzEsMi4wMywxOC4wMWMwLjcyLDIuNjcsMS42OCw1LjI3LDIuODMsNy43NmMtMTAuNzQsNS43NS0yNC4zOCw3LjQ0LTMyLjIsNy45MyYjMTA7JiM5OyYjOTtjLTQuNzYsMC4zLTE3LjMsMC42OS0yOC4wNS0yLjM1QzE0MS4xMywzMjIuMDgsMTM5Ljk1LDMyMC4zLDEzOC45NCwzMTguNDZ6IE0yMDEuNSwzMzkuODJjLTE0Ljk1LDYuMzUtMzMuMjUsNC4yLTQ3Ljc3LTUuNjEmIzEwOyYjOTsmIzk7Yy0zLjQ1LTIuMzMtNi40OS00Ljk2LTkuMDctNy44MWMxMC4zOSwyLjM5LDIxLjUzLDIuMDMsMjUuOTksMS43NWM4LjAxLTAuNSwyMS44OC0yLjI0LDMyLjk2LTguMTNjMi40Nyw0LjgsNS42Nyw5LjEyLDkuMzIsMTIuNjImIzEwOyYjOTsmIzk7QzIwOS43OSwzMzUuNSwyMDUuOTcsMzM3LjkyLDIwMS41LDMzOS44MnogTTIxNC4zNSwzMzEuMjdjLTMuNTMtMy4zNy02LjYzLTcuNTUtOS4wMS0xMi4yMmM2LjkxLTQuMDcsMTIuNDctOS45MSwxNC40MS0xOC4yOSYjMTA7JiM5OyYjOTtjMS4wNSwwLjE5LDIuMTIsMC4zNCwzLjIxLDAuNDdDMjI0Ljc3LDMxMy4yOCwyMjEuNzYsMzIzLjY3LDIxNC4zNSwzMzEuMjd6IE0yNTMuMzksMzMwLjY3Yy03Ljk5LDcuOTQtMTYuODksMTAuODgtMjUuNzMsOC41JiMxMDsmIzk7JiM5O2MtNC4xMy0xLjExLTguMTYtMy40LTExLjgtNi41NGM3Ljc1LTcuOTIsMTAuOTUtMTguNzEsOS4xNi0zMS4yMmM1LjkxLDAuNDIsMTIuMjItMC4yNCwxOC40MS0yLjg2JiMxMDsmIzk7JiM5O2MwLjQ4LDEzLjg1LDQuNDMsMjMuOTYsMTEuMDMsMjguMDJjMC42MSwwLjM3LDEuMjMsMC43LDEuODgsMC45N0MyNTUuMzUsMzI4LjY1LDI1NC4zNywzMjkuNywyNTMuMzksMzMwLjY3eiBNMjU3LjcyLDMyNS45MyYjMTA7JiM5OyYjOTtjLTAuNzctMC4yNy0xLjUxLTAuNjMtMi4yMi0xLjA2Yy02LjA1LTMuNzItOS43Ni0xMy44LTEwLjEtMjcuMjJjMTAuNDQtNS4xOCwxNy4xLTE0Ljg0LDIxLjU3LTI0LjIyYzEuMiwwLjQ4LDIuNDIsMC44NiwzLjY1LDEuMTQmIzEwOyYjOTsmIzk7QzI3OC42NiwyOTEuNzUsMjY4LjcxLDMxMi43NywyNTcuNzIsMzI1LjkzeiBNMjcyLjQsMzIzLjY0Yy00Ljc1LDIuNDUtOC45NSwzLjM5LTEyLjU0LDIuODNjMTAuODYtMTMuMzUsMjAuMzktMzQuMDcsMTMuMTEtNTEuNTImIzEwOyYjOTsmIzk7YzAuOTQsMC4wOSwxLjg5LDAuMTEsMi44NSwwLjA1YzYuODQtMC40NiwxMi4zNS0yLjQ0LDE2LjM1LTUuOWMzLjExLTIuNjgsNi41Ni00LjAzLDEwLjItNS40NWMyLjI2LTAuODgsNC41OS0xLjc5LDYuOTItMy4wNSYjMTA7JiM5OyYjOTtDMzA5Ljg5LDI4Ny45OSwyODguMzMsMzE1LjQzLDI3Mi40LDMyMy42NHogTTMxMS4xLDI1Ny4yM2MtMC4zNS00LjE2LTEuMjItOC4zMS0yLjY5LTEyLjM3YzUuMzEtMC4zMSwxMC44Ni0xLjA1LDE2LjYtMi4zNyYjMTA7JiM5OyYjOTtDMzIzLjA3LDI0Ny45LDMxOC41MywyNTIuNjcsMzExLjEsMjU3LjIzeiBNMzI1LjY3LDI0MC4yMmMtNi4yNiwxLjUxLTEyLjMsMi4zMi0xOC4wNCwyLjYzYy01Ljc1LTE0LjE2LTEzLjU3LTI3Ljc4LTIzLjA2LTQwLjI4JiMxMDsmIzk7JiM5O2MxLjQ4LTE0LTAuMDctMjguODYtMy44NS00MC42OGMwLjk1LTQuNiwxLjc0LTkuMzIsMS4yNy0xNC4wM2MtMC4wOC0wLjgyLTAuMTQtMS42Ny0wLjE4LTIuNTFjMTQuNyw0LjAxLDI2Ljc5LDEzLjk5LDMxLjg2LDI3LjM0JiMxMDsmIzk7JiM5O2MyLjUzLDYuNjcsNC4xOCwxNy41Niw1LjUsMjYuMzFjMC41LDMuMzMsMC45OCw2LjQ3LDEuNDUsOS4wOWMwLjY0LDMuNTYsMS41MSw3LjExLDIuMzYsMTAuNTRjMS4xNCw0LjY3LDIuMzMsOS41LDIuOTUsMTQuMzgmIzEwOyYjOTsmIzk7QzMyNi4yNSwyMzUuNTQsMzI2LjE3LDIzNy45NCwzMjUuNjcsMjQwLjIyeiIgY2xhc3M9InN0MCIvPiYjeGE7CTxnPiYjeGE7CQk8cGF0aCBkPSJNNDE3LjY1LDIwNC43NWMtMC4wMSwwLTAuMDIsMC0wLjA0LDBjLTAuNTUtMC4wMi0wLjk4LTAuNDgtMC45Ni0xLjAzbDEuNTgtNDYuMTdsLTQwLjc3LDIxLjcyJiMxMDsmIzk7JiM5OyYjOTtjLTAuNDksMC4yNi0xLjA5LDAuMDctMS4zNS0wLjQxYy0wLjI2LTAuNDktMC4wOC0xLjA5LDAuNDEtMS4zNWw0Mi4zLTIyLjUzYzAuMzEtMC4xNywwLjctMC4xNiwxLDAuMDMmIzEwOyYjOTsmIzk7JiM5O2MwLjMsMC4xOSwwLjQ4LDAuNTMsMC40NywwLjg4bC0xLjY0LDQ3LjlDNDE4LjYzLDIwNC4zMyw0MTguMTksMjA0Ljc1LDQxNy42NSwyMDQuNzV6IiBjbGFzcz0ic3QwIi8+JiN4YTsJPC9nPiYjeGE7PC9nPiYjeGE7PC9zdmc+;" vertex="1" parent="1">
          <mxGeometry x="254" y="178.5" width="34.5" height="34.5" as="geometry" />
        </mxCell>
        <mxCell id="1qp-YZCZ-MBouMGp_NZz-35" value="" style="endArrow=classic;html=1;rounded=0;exitX=1.124;exitY=0.522;exitDx=0;exitDy=0;exitPerimeter=0;endSize=3;sketch=1;curveFitting=1;jiggle=2;" edge="1" parent="1">
          <mxGeometry width="50" height="50" relative="1" as="geometry">
            <mxPoint x="299.99999999999994" y="185.07999999999996" as="sourcePoint" />
            <mxPoint x="315.76" y="184.85999999999999" as="targetPoint" />
          </mxGeometry>
        </mxCell>
        <mxCell id="1qp-YZCZ-MBouMGp_NZz-36" value="" style="endArrow=classic;html=1;rounded=0;exitX=1.124;exitY=0.522;exitDx=0;exitDy=0;exitPerimeter=0;endSize=3;sketch=1;curveFitting=1;jiggle=2;" edge="1" parent="1">
          <mxGeometry width="50" height="50" relative="1" as="geometry">
            <mxPoint x="299.99999999999994" y="295.0799999999999" as="sourcePoint" />
            <mxPoint x="315.76" y="294.85999999999996" as="targetPoint" />
          </mxGeometry>
        </mxCell>
        <mxCell id="1qp-YZCZ-MBouMGp_NZz-47" value="" style="ellipse;whiteSpace=wrap;html=1;aspect=fixed;fillColor=#f8cecc;strokeColor=#b85450;" vertex="1" parent="1">
          <mxGeometry x="350" y="140" width="10" height="10" as="geometry" />
        </mxCell>
        <mxCell id="1qp-YZCZ-MBouMGp_NZz-48" value="" style="ellipse;whiteSpace=wrap;html=1;aspect=fixed;fillColor=#FF3333;strokeColor=#b85450;" vertex="1" parent="1">
          <mxGeometry x="350" y="160" width="10" height="10" as="geometry" />
        </mxCell>
        <mxCell id="1qp-YZCZ-MBouMGp_NZz-49" value="" style="ellipse;whiteSpace=wrap;html=1;aspect=fixed;fillColor=#FF9999;strokeColor=#b85450;" vertex="1" parent="1">
          <mxGeometry x="350" y="180" width="10" height="10" as="geometry" />
        </mxCell>
        <mxCell id="1qp-YZCZ-MBouMGp_NZz-50" value="" style="ellipse;whiteSpace=wrap;html=1;aspect=fixed;fillColor=#FF0000;strokeColor=#990000;" vertex="1" parent="1">
          <mxGeometry x="350" y="200" width="10" height="10" as="geometry" />
        </mxCell>
        <mxCell id="1qp-YZCZ-MBouMGp_NZz-51" value="" style="ellipse;whiteSpace=wrap;html=1;aspect=fixed;fillColor=#FFDFD3;strokeColor=#FFCCCC;fontColor=#333333;" vertex="1" parent="1">
          <mxGeometry x="350" y="220" width="10" height="10" as="geometry" />
        </mxCell>
        <mxCell id="1qp-YZCZ-MBouMGp_NZz-52" value="" style="ellipse;whiteSpace=wrap;html=1;aspect=fixed;fillColor=#FFCCCC;strokeColor=#b85450;" vertex="1" parent="1">
          <mxGeometry x="350" y="250" width="10" height="10" as="geometry" />
        </mxCell>
        <mxCell id="1qp-YZCZ-MBouMGp_NZz-53" value="" style="ellipse;whiteSpace=wrap;html=1;aspect=fixed;fillColor=#FF3333;strokeColor=#b85450;" vertex="1" parent="1">
          <mxGeometry x="350" y="270" width="10" height="10" as="geometry" />
        </mxCell>
        <mxCell id="1qp-YZCZ-MBouMGp_NZz-54" value="" style="ellipse;whiteSpace=wrap;html=1;aspect=fixed;fillColor=#FF9999;strokeColor=#b85450;" vertex="1" parent="1">
          <mxGeometry x="350" y="290" width="10" height="10" as="geometry" />
        </mxCell>
        <mxCell id="1qp-YZCZ-MBouMGp_NZz-55" value="" style="ellipse;whiteSpace=wrap;html=1;aspect=fixed;fillColor=#FF0000;strokeColor=#990000;" vertex="1" parent="1">
          <mxGeometry x="350" y="310" width="10" height="10" as="geometry" />
        </mxCell>
        <mxCell id="1qp-YZCZ-MBouMGp_NZz-56" value="" style="ellipse;whiteSpace=wrap;html=1;aspect=fixed;fillColor=#FFDFD3;strokeColor=#FFCCCC;fontColor=#333333;" vertex="1" parent="1">
          <mxGeometry x="350" y="330" width="10" height="10" as="geometry" />
        </mxCell>
        <mxCell id="1qp-YZCZ-MBouMGp_NZz-57" value="" style="endArrow=none;html=1;rounded=0;entryX=0;entryY=0.5;entryDx=0;entryDy=0;exitX=0;exitY=0.5;exitDx=0;exitDy=0;curved=1;fillColor=#f8cecc;strokeColor=#FF9999;" edge="1" parent="1" source="1qp-YZCZ-MBouMGp_NZz-52" target="1qp-YZCZ-MBouMGp_NZz-47">
          <mxGeometry width="50" height="50" relative="1" as="geometry">
            <mxPoint x="270" y="210" as="sourcePoint" />
            <mxPoint x="320" y="160" as="targetPoint" />
            <Array as="points">
              <mxPoint x="300" y="200" />
            </Array>
          </mxGeometry>
        </mxCell>
        <mxCell id="1qp-YZCZ-MBouMGp_NZz-58" value="" style="endArrow=none;html=1;rounded=0;exitX=0;exitY=0.5;exitDx=0;exitDy=0;curved=1;entryX=0;entryY=0.5;entryDx=0;entryDy=0;fillColor=#f8cecc;strokeColor=#b85450;" edge="1" parent="1" source="1qp-YZCZ-MBouMGp_NZz-53" target="1qp-YZCZ-MBouMGp_NZz-48">
          <mxGeometry width="50" height="50" relative="1" as="geometry">
            <mxPoint x="350" y="305" as="sourcePoint" />
            <mxPoint x="350" y="135" as="targetPoint" />
            <Array as="points">
              <mxPoint x="300" y="220" />
            </Array>
          </mxGeometry>
        </mxCell>
        <mxCell id="1qp-YZCZ-MBouMGp_NZz-59" value="" style="endArrow=none;html=1;rounded=0;entryX=0;entryY=0.5;entryDx=0;entryDy=0;exitX=0;exitY=0.5;exitDx=0;exitDy=0;curved=1;fillColor=#f8cecc;strokeColor=#FF6666;" edge="1" parent="1" source="1qp-YZCZ-MBouMGp_NZz-54" target="1qp-YZCZ-MBouMGp_NZz-49">
          <mxGeometry width="50" height="50" relative="1" as="geometry">
            <mxPoint x="350" y="324" as="sourcePoint" />
            <mxPoint x="350" y="154" as="targetPoint" />
            <Array as="points">
              <mxPoint x="300" y="239" />
            </Array>
          </mxGeometry>
        </mxCell>
        <mxCell id="1qp-YZCZ-MBouMGp_NZz-60" value="" style="endArrow=none;html=1;rounded=0;entryX=0;entryY=0.5;entryDx=0;entryDy=0;exitX=0;exitY=0.5;exitDx=0;exitDy=0;curved=1;fillColor=#f8cecc;strokeColor=#FF3333;" edge="1" parent="1" source="1qp-YZCZ-MBouMGp_NZz-55" target="1qp-YZCZ-MBouMGp_NZz-50">
          <mxGeometry width="50" height="50" relative="1" as="geometry">
            <mxPoint x="350" y="344" as="sourcePoint" />
            <mxPoint x="350" y="174" as="targetPoint" />
            <Array as="points">
              <mxPoint x="300" y="259" />
            </Array>
          </mxGeometry>
        </mxCell>
        <mxCell id="1qp-YZCZ-MBouMGp_NZz-61" value="" style="endArrow=none;html=1;rounded=0;entryX=0;entryY=0.5;entryDx=0;entryDy=0;exitX=0;exitY=0.5;exitDx=0;exitDy=0;curved=1;fillColor=#f8cecc;strokeColor=#FFE6CC;" edge="1" parent="1" source="1qp-YZCZ-MBouMGp_NZz-56" target="1qp-YZCZ-MBouMGp_NZz-51">
          <mxGeometry width="50" height="50" relative="1" as="geometry">
            <mxPoint x="350" y="365" as="sourcePoint" />
            <mxPoint x="350" y="195" as="targetPoint" />
            <Array as="points">
              <mxPoint x="300" y="280" />
            </Array>
          </mxGeometry>
        </mxCell>
        <mxCell id="1qp-YZCZ-MBouMGp_NZz-64" value="" style="endArrow=none;html=1;rounded=0;exitX=1;exitY=0.5;exitDx=0;exitDy=0;fillColor=#f5f5f5;strokeColor=#666666;entryX=0;entryY=0.5;entryDx=0;entryDy=0;" edge="1" parent="1" source="1qp-YZCZ-MBouMGp_NZz-50" target="1qp-YZCZ-MBouMGp_NZz-65">
          <mxGeometry width="50" height="50" relative="1" as="geometry">
            <mxPoint x="380" y="210" as="sourcePoint" />
            <mxPoint x="380" y="205" as="targetPoint" />
          </mxGeometry>
        </mxCell>
        <mxCell id="1qp-YZCZ-MBouMGp_NZz-65" value="" style="rounded=0;whiteSpace=wrap;html=1;fillColor=#FFFFFF;fontColor=#333333;strokeColor=#666666;" vertex="1" parent="1">
          <mxGeometry x="376" y="197.25" width="30" height="15.5" as="geometry" />
        </mxCell>
        <mxCell id="1qp-YZCZ-MBouMGp_NZz-67" value="" style="endArrow=none;html=1;rounded=0;curved=1;fillColor=#f5f5f5;strokeColor=#666666;" edge="1" parent="1">
          <mxGeometry width="50" height="50" relative="1" as="geometry">
            <mxPoint x="380.75" y="210" as="sourcePoint" />
            <mxPoint x="401.25" y="210" as="targetPoint" />
            <Array as="points">
              <mxPoint x="391.25" y="200" />
            </Array>
          </mxGeometry>
        </mxCell>
        <mxCell id="1qp-YZCZ-MBouMGp_NZz-68" value="" style="endArrow=none;html=1;rounded=0;fillColor=#f5f5f5;strokeColor=#666666;" edge="1" parent="1">
          <mxGeometry width="50" height="50" relative="1" as="geometry">
            <mxPoint x="391" y="210" as="sourcePoint" />
            <mxPoint x="401" y="200" as="targetPoint" />
          </mxGeometry>
        </mxCell>
        <mxCell id="1qp-YZCZ-MBouMGp_NZz-69" value="" style="endArrow=none;html=1;rounded=0;exitX=1;exitY=0.5;exitDx=0;exitDy=0;fillColor=#f5f5f5;strokeColor=#666666;entryX=0;entryY=0.5;entryDx=0;entryDy=0;" edge="1" parent="1" target="1qp-YZCZ-MBouMGp_NZz-70">
          <mxGeometry width="50" height="50" relative="1" as="geometry">
            <mxPoint x="360" y="225" as="sourcePoint" />
            <mxPoint x="380" y="225" as="targetPoint" />
          </mxGeometry>
        </mxCell>
        <mxCell id="1qp-YZCZ-MBouMGp_NZz-70" value="" style="rounded=0;whiteSpace=wrap;html=1;fillColor=#FFFFFF;fontColor=#333333;strokeColor=#666666;" vertex="1" parent="1">
          <mxGeometry x="376" y="217.25" width="30" height="15.5" as="geometry" />
        </mxCell>
        <mxCell id="1qp-YZCZ-MBouMGp_NZz-71" value="" style="endArrow=none;html=1;rounded=0;curved=1;fillColor=#f5f5f5;strokeColor=#666666;" edge="1" parent="1">
          <mxGeometry width="50" height="50" relative="1" as="geometry">
            <mxPoint x="380.75" y="230" as="sourcePoint" />
            <mxPoint x="401.25" y="230" as="targetPoint" />
            <Array as="points">
              <mxPoint x="391.25" y="220" />
            </Array>
          </mxGeometry>
        </mxCell>
        <mxCell id="1qp-YZCZ-MBouMGp_NZz-72" value="" style="endArrow=none;html=1;rounded=0;fillColor=#f5f5f5;strokeColor=#666666;" edge="1" parent="1">
          <mxGeometry width="50" height="50" relative="1" as="geometry">
            <mxPoint x="391" y="230" as="sourcePoint" />
            <mxPoint x="401" y="220" as="targetPoint" />
          </mxGeometry>
        </mxCell>
        <mxCell id="1qp-YZCZ-MBouMGp_NZz-73" value="" style="endArrow=none;html=1;rounded=0;exitX=1;exitY=0.5;exitDx=0;exitDy=0;fillColor=#f5f5f5;strokeColor=#666666;entryX=0;entryY=0.5;entryDx=0;entryDy=0;" edge="1" parent="1" target="1qp-YZCZ-MBouMGp_NZz-74">
          <mxGeometry width="50" height="50" relative="1" as="geometry">
            <mxPoint x="360" y="315" as="sourcePoint" />
            <mxPoint x="380" y="315" as="targetPoint" />
          </mxGeometry>
        </mxCell>
        <mxCell id="1qp-YZCZ-MBouMGp_NZz-74" value="" style="rounded=0;whiteSpace=wrap;html=1;fillColor=#FFFFFF;fontColor=#333333;strokeColor=#666666;" vertex="1" parent="1">
          <mxGeometry x="376" y="307.25" width="30" height="15.5" as="geometry" />
        </mxCell>
        <mxCell id="1qp-YZCZ-MBouMGp_NZz-75" value="" style="endArrow=none;html=1;rounded=0;curved=1;fillColor=#f5f5f5;strokeColor=#666666;" edge="1" parent="1">
          <mxGeometry width="50" height="50" relative="1" as="geometry">
            <mxPoint x="380.75" y="320" as="sourcePoint" />
            <mxPoint x="401.25" y="320" as="targetPoint" />
            <Array as="points">
              <mxPoint x="391.25" y="310" />
            </Array>
          </mxGeometry>
        </mxCell>
        <mxCell id="1qp-YZCZ-MBouMGp_NZz-76" value="" style="endArrow=none;html=1;rounded=0;fillColor=#f5f5f5;strokeColor=#666666;" edge="1" parent="1">
          <mxGeometry width="50" height="50" relative="1" as="geometry">
            <mxPoint x="391" y="320" as="sourcePoint" />
            <mxPoint x="401" y="310" as="targetPoint" />
          </mxGeometry>
        </mxCell>
        <mxCell id="1qp-YZCZ-MBouMGp_NZz-77" value="" style="endArrow=none;html=1;rounded=0;exitX=1;exitY=0.5;exitDx=0;exitDy=0;fillColor=#f5f5f5;strokeColor=#666666;entryX=0;entryY=0.5;entryDx=0;entryDy=0;" edge="1" parent="1" target="1qp-YZCZ-MBouMGp_NZz-78">
          <mxGeometry width="50" height="50" relative="1" as="geometry">
            <mxPoint x="360" y="335" as="sourcePoint" />
            <mxPoint x="380" y="335" as="targetPoint" />
          </mxGeometry>
        </mxCell>
        <mxCell id="1qp-YZCZ-MBouMGp_NZz-78" value="" style="rounded=0;whiteSpace=wrap;html=1;fillColor=#FFFFFF;fontColor=#333333;strokeColor=#666666;" vertex="1" parent="1">
          <mxGeometry x="376" y="327.25" width="30" height="15.5" as="geometry" />
        </mxCell>
        <mxCell id="1qp-YZCZ-MBouMGp_NZz-79" value="" style="endArrow=none;html=1;rounded=0;curved=1;fillColor=#f5f5f5;strokeColor=#666666;" edge="1" parent="1">
          <mxGeometry width="50" height="50" relative="1" as="geometry">
            <mxPoint x="380.75" y="340" as="sourcePoint" />
            <mxPoint x="401.25" y="340" as="targetPoint" />
            <Array as="points">
              <mxPoint x="391.25" y="330" />
            </Array>
          </mxGeometry>
        </mxCell>
        <mxCell id="1qp-YZCZ-MBouMGp_NZz-80" value="" style="endArrow=none;html=1;rounded=0;fillColor=#f5f5f5;strokeColor=#666666;" edge="1" parent="1">
          <mxGeometry width="50" height="50" relative="1" as="geometry">
            <mxPoint x="391" y="340" as="sourcePoint" />
            <mxPoint x="401" y="330" as="targetPoint" />
          </mxGeometry>
        </mxCell>
        <mxCell id="1qp-YZCZ-MBouMGp_NZz-81" value="" style="ellipse;whiteSpace=wrap;html=1;aspect=fixed;fillColor=#d5e8d4;strokeColor=#82b366;" vertex="1" parent="1">
          <mxGeometry x="200" y="220" width="10" height="10" as="geometry" />
        </mxCell>
        <mxCell id="1qp-YZCZ-MBouMGp_NZz-82" value="\large $C$" style="text;html=1;align=center;verticalAlign=middle;resizable=0;points=[];autosize=1;strokeColor=none;fillColor=none;" vertex="1" parent="1">
          <mxGeometry x="229.5" y="151" width="80" height="30" as="geometry" />
        </mxCell>
        <mxCell id="1qp-YZCZ-MBouMGp_NZz-83" value="\large $C^*$" style="text;html=1;align=center;verticalAlign=middle;resizable=0;points=[];autosize=1;strokeColor=none;fillColor=none;" vertex="1" parent="1">
          <mxGeometry x="225.5" y="261" width="90" height="30" as="geometry" />
        </mxCell>
        <mxCell id="1qp-YZCZ-MBouMGp_NZz-13" value="" style="endArrow=none;html=1;rounded=0;entryX=0;entryY=0.5;entryDx=0;entryDy=0;exitX=0;exitY=0.5;exitDx=0;exitDy=0;curved=1;fillColor=#d5e8d4;strokeColor=#FF0000;" edge="1" parent="1" source="1qp-YZCZ-MBouMGp_NZz-7" target="1qp-YZCZ-MBouMGp_NZz-1">
          <mxGeometry width="50" height="50" relative="1" as="geometry">
            <mxPoint x="120" y="210" as="sourcePoint" />
            <mxPoint x="170" y="160" as="targetPoint" />
            <Array as="points">
              <mxPoint x="150" y="200" />
            </Array>
          </mxGeometry>
        </mxCell>
        <mxCell id="1qp-YZCZ-MBouMGp_NZz-94" value="$\vec{y}$" style="text;html=1;align=center;verticalAlign=middle;whiteSpace=wrap;rounded=0;fontSize=7;" vertex="1" parent="1">
          <mxGeometry x="406" y="310.5" width="43" height="30" as="geometry" />
        </mxCell>
        <mxCell id="1qp-YZCZ-MBouMGp_NZz-95" value="" style="shape=curlyBracket;whiteSpace=wrap;html=1;rounded=1;flipH=1;labelPosition=right;verticalLabelPosition=middle;align=left;verticalAlign=middle;fillColor=#f5f5f5;fontColor=#333333;strokeColor=#666666;" vertex="1" parent="1">
          <mxGeometry x="410.5" y="307" width="6.5" height="37" as="geometry" />
        </mxCell>
        <mxCell id="1qp-YZCZ-MBouMGp_NZz-98" value="$\vec{x}$" style="text;html=1;align=center;verticalAlign=middle;whiteSpace=wrap;rounded=0;fontSize=7;" vertex="1" parent="1">
          <mxGeometry x="407.5" y="199.25" width="42.5" height="30" as="geometry" />
        </mxCell>
        <mxCell id="1qp-YZCZ-MBouMGp_NZz-99" value="" style="shape=curlyBracket;whiteSpace=wrap;html=1;rounded=1;flipH=1;labelPosition=right;verticalLabelPosition=middle;align=left;verticalAlign=middle;fillColor=#f5f5f5;fontColor=#333333;strokeColor=#666666;" vertex="1" parent="1">
          <mxGeometry x="411" y="195.75" width="6.5" height="37" as="geometry" />
        </mxCell>
        <mxCell id="1qp-YZCZ-MBouMGp_NZz-100" value="" style="endArrow=classic;html=1;rounded=0;entryX=0.5;entryY=1;entryDx=0;entryDy=0;exitX=0.918;exitY=0.102;exitDx=0;exitDy=0;exitPerimeter=0;curved=1;endSize=3;sketch=1;curveFitting=1;jiggle=2;" edge="1" parent="1" source="1qp-YZCZ-MBouMGp_NZz-94" target="1qp-YZCZ-MBouMGp_NZz-102">
          <mxGeometry width="50" height="50" relative="1" as="geometry">
            <mxPoint x="470" y="327.25" as="sourcePoint" />
            <mxPoint x="493" y="290" as="targetPoint" />
            <Array as="points">
              <mxPoint x="466" y="290" />
            </Array>
          </mxGeometry>
        </mxCell>
        <mxCell id="1qp-YZCZ-MBouMGp_NZz-101" value="" style="endArrow=classic;html=1;rounded=0;exitX=1;exitY=0.5;exitDx=0;exitDy=0;entryX=0.5;entryY=0;entryDx=0;entryDy=0;curved=1;endSize=3;sketch=1;curveFitting=1;jiggle=2;" edge="1" parent="1" source="1qp-YZCZ-MBouMGp_NZz-98" target="1qp-YZCZ-MBouMGp_NZz-102">
          <mxGeometry width="50" height="50" relative="1" as="geometry">
            <mxPoint x="462.99999999999994" y="212.74999999999997" as="sourcePoint" />
            <mxPoint x="505.43000000000006" y="225.15" as="targetPoint" />
            <Array as="points">
              <mxPoint x="463" y="210" />
            </Array>
          </mxGeometry>
        </mxCell>
        <mxCell id="1qp-YZCZ-MBouMGp_NZz-102" value="$\vec{s}=\vec{x}\oplus \vec{y}$" style="text;html=1;align=center;verticalAlign=middle;whiteSpace=wrap;rounded=0;fontSize=2;" vertex="1" parent="1">
          <mxGeometry x="444" y="224.25" width="43" height="30" as="geometry" />
        </mxCell>
        <mxCell id="1qp-YZCZ-MBouMGp_NZz-126" value="" style="shape=image;verticalLabelPosition=bottom;labelBackgroundColor=default;verticalAlign=top;aspect=fixed;imageAspect=0;editableCssRules=.*;image=data:image/svg+xml,PHN2ZyB4bWxuczp4bGluaz0iaHR0cDovL3d3dy53My5vcmcvMTk5OS94bGluayIgeG1sbnM9Imh0dHA6Ly93d3cudzMub3JnLzIwMDAvc3ZnIiB4bWw6c3BhY2U9InByZXNlcnZlIiBzdHlsZT0iZW5hYmxlLWJhY2tncm91bmQ6bmV3IDAgMCA0NTAgNDUwOyIgdmlld0JveD0iMCAwIDQ1MCA0NTAiIHk9IjBweCIgeD0iMHB4IiBpZD0iTGF5ZXJfMSIgdmVyc2lvbj0iMS4xIj4mI3hhOzxzdHlsZSB0eXBlPSJ0ZXh0L2NzcyI+JiN4YTsJLnN0MHtmaWxsOiMyMzFGMjA7c3Ryb2tlOiMyMzFGMjA7c3Ryb2tlLXdpZHRoOjEwO3N0cm9rZS1taXRlcmxpbWl0OjEwO30mI3hhOzwvc3R5bGU+JiN4YTs8Zz4mI3hhOwk8cGF0aCBkPSJNNDE5Ljc2LDE1NC45N2MtMC40OC0wLjI2LTEuMDktMC4wOC0xLjM1LDAuNGMtMjkuNDksNTQuNjMtNjIuMTgsNzYuNzctOTAuNiw4NC4zJiMxMDsmIzk7JiM5O2MwLjM2LTIuMTMsMC40Mi00LjQzLDAuMS02LjkyYy0wLjY0LTUtMS44My05Ljg4LTIuOTktMTQuNjFjLTAuODMtMy40LTEuNy02LjkyLTIuMzMtMTAuNDJjLTAuNDctMi41OS0wLjk0LTUuNzItMS40NC05LjAzJiMxMDsmIzk7JiM5O2MtMS40MS05LjMxLTMtMTkuODUtNS42MS0yNi43MmMtNS4zNy0xNC4xNC0xOC4yNC0yNC42Ni0zMy44Mi0yOC43MmMwLTAuMDgtMC4wMS0wLjE1LTAuMDEtMC4yM2MtMC4zMS04LjQ2LTAuNjQtMTcuMjItMTQuMDEtMjUuNSYjMTA7JiM5OyYjOTtjLTUuMzMtMy4zMS0xNS42OS01Ljc2LTI0LjE2LTcuNDRjLTAuODQtMC42My0xLjY5LTEuMjUtMi41NS0xLjg2Yy0xMS40Mi04LjA2LTI4LjIzLTE2LjktNDMuNDQtMTMuMjMmIzEwOyYjOTsmIzk7Yy04LjM5LDIuMDItMTQuMDksOC41MS0xNi45NywxOS4xMmMtMy4zNS0wLjY0LTYuODEtMS4zNy0xMC40NC0yLjM3bC0wLjM5LTAuMTFjLTEwLjI2LTIuODMtMjcuNDItNy41Ni0zNy4wNy0wLjE2JiMxMDsmIzk7JiM5O2MtNS44MSw0LjQ2LTYuNSwxMi41Mi03LjEyLDE5LjYzYy0wLjE2LDEuODgtMC4zMSwzLjY2LTAuNTUsNS4yOWMtMS4zMyw5LjAyLTUuNiwxNS42OS05LjczLDIyLjE0Yy01LjA1LDcuOS05LjgzLDE1LjM1LTkuMDYsMjYuMyYjMTA7JiM5OyYjOTtjMC4yMSwyLjk4LDAuNzIsNi40MywxLjI2LDEwLjA4YzAuMzgsMi41OSwwLjc5LDUuMzQsMS4xMyw4LjJjLTAuNTQtMC45NS0xLjA5LTEuODktMS42NC0yLjgzYy0wLjIyLTAuMzgtMC41Mi0wLjkzLTAuODktMS42JiMxMDsmIzk7JiM5O2MtMi44OS01LjI5LTguMjctMTUuMTUtMTMuNDMtMTMuN2MtNC4wOCwxLjE0LTUuMjIsOC43Mi01Ljg0LDE2Ljc0Yy0wLjA1LDAuNi0wLjA5LDEuMS0wLjEyLDEuNDhjLTAuNTYsNS42Mi0wLjM0LDEyLjYsMS4yLDE5LjQ1JiMxMDsmIzk7JiM5O2MtMS4xOCwzLjIzLTEuOSw2Ljg4LTIuMjQsMTAuNzZjLTMuMzMsMC4wMi02LjY3LDAuMDMtOS45MywwLjA0Yy05Ljc1LDAuMDQtMTguOTYsMC4wOC0yNS4yOSwwLjIyJiMxMDsmIzk7JiM5O2MtMTQuNzcsMC4zNC0yNi40LDAuMDgtMjYuNTEsMC4wOGMtMC41Ni0wLjAxLTEuMDEsMC40Mi0xLjAyLDAuOThjLTAuMDEsMC41NSwwLjQyLDEuMDEsMC45OCwxLjAyYzAuMTIsMCwxMS43OCwwLjI2LDI2LjYtMC4wOCYjMTA7JiM5OyYjOTtjNi4zMS0wLjE0LDE1LjUxLTAuMTgsMjUuMjUtMC4yMmMzLjIxLTAuMDEsNi40OS0wLjAzLDkuNzctMC4wNGMtMC44NywxNS44MSwzLjkyLDM0LjgsOC4xNiw0NC40OCYjMTA7JiM5OyYjOTtjOS45LDIyLjU4LDIxLjY5LDM1LjY2LDM0LjU1LDM4LjUyYzAuMDgsMC4wOCwwLjE3LDAuMTYsMC4yNSwwLjI0YzMuMzQsMy4yMiw3Ljg5LDUuNCwxMi44MSw2Ljg2YzMuMDYsMy44Myw2Ljg3LDcuMzQsMTEuMzMsMTAuMzUmIzEwOyYjOTsmIzk7YzkuMzIsNi4zLDIwLjE2LDkuNTUsMzAuNzYsOS41NWM2LjU0LDAsMTIuOTgtMS4yNCwxOC45Mi0zLjc2YzQuNzYtMi4wMiw4LjgyLTQuNTksMTIuMTUtNy42M2MzLjkxLDMuNCw4LjI1LDUuODgsMTIuNzEsNy4wOCYjMTA7JiM5OyYjOTtjNi42NywxLjc5LDE2Ljg5LDEuNjksMjcuNjYtOS4wMmMxLjE5LTEuMTksMi40LTIuNDgsMy42LTMuODdjNC4yOCwxLjA0LDkuMjcsMC4xLDE0LjkyLTIuODFjMTYuNTgtOC41NCwzOS4wNi0zNy4zNiwzNy45Mi02NS45MyYjMTA7JiM5OyYjOTtjNi43NC0zLjk3LDEzLjcxLTkuMzcsMTYuMDUtMTcuNTRjMjkuMDgtNy4zNiw2Mi42Ni0yOS42NSw5Mi44Ny04NS42MUM0MjAuNDMsMTU1Ljg0LDQyMC4yNSwxNTUuMjMsNDE5Ljc2LDE1NC45N3ogTTI4MCwxNDguMDUmIzEwOyYjOTsmIzk7YzAuMzMsMy4zMy0wLjAyLDYuNzItMC42LDEwLjA4Yy0xLjktNC45OC00LjE3LTkuODItNi43Ni0xNC40NmMyLjQzLDAuMjMsNC44MSwwLjYyLDcuMTQsMS4xNiYjMTA7JiM5OyYjOTtDMjc5LjgzLDE0NS45MSwyNzkuODksMTQ2Ljk4LDI4MCwxNDguMDV6IE0yNDMuMzksMjk2LjRjLTYuMjUsMi44Mi0xMi42OSwzLjQ4LTE4LjY5LDIuOTljLTAuNTktMy4yMy0xLjUxLTYuNTctMi43Ni0xMCYjMTA7JiM5OyYjOTtjLTAuNTItMS40My0xLjI3LTIuOTgtMi4yMi00LjQ2Yy0wLjMyLTEuNzQtMC43NC0zLjQ3LTEuMjUtNS4xOWM1Ljg1LDAuMjEsMTEuNzYtMC44MywxNy4zMS0zLjYzYzYuNzYtMy40MSwxMS40NC04LjY3LDE0LjUtMTQuODImIzEwOyYjOTsmIzk7YzEuMDQsMS4wNCwyLjE1LDIuMTEsMy4zMywzLjE4Yy0wLjM4LDAuMjQtMC43NiwwLjUxLTEuMTMsMC44Yy04LDYuMjctOS4wMiwyMC4wMy05LjA4LDI5LjgyJiMxMDsmIzk7JiM5O0MyNDMuMzgsMjk1LjUyLDI0My4zOCwyOTUuOTYsMjQzLjM5LDI5Ni40eiBNMjIwLjQ0LDI5MS4xNmMwLjk0LDIuNzMsMS42Niw1LjQxLDIuMTYsOC4wMWMtMC44NC0wLjExLTEuNjYtMC4yMy0yLjQ4LTAuMzgmIzEwOyYjOTsmIzk7YzAuMTctMS4wOCwwLjI4LTIuMjEsMC4zMy0zLjM3QzIyMC41MiwyOTQsMjIwLjUxLDI5Mi41OCwyMjAuNDQsMjkxLjE2eiBNMTExLjM2LDIxMi4zOGMxLjMxLDIuNTUsMi41Niw1LjEyLDMuNzUsNy42OSYjMTA7JiM5OyYjOTtjLTEuMzgsMC4xOC0yLjcsMC40Mi0zLjk2LDAuNzJDMTExLjQxLDIxNy45OCwxMTEuNDUsMjE1LjE2LDExMS4zNiwyMTIuMzh6IE0yMDMuMDcsMTczLjY4Yy0xLjcxLTAuMTEtMy40LTAuNC01LjAzLTAuODkmIzEwOyYjOTsmIzk7YzEuNDUtMS41NSwzLjExLTIuNjIsNC45Ni0zLjJDMjAyLjkzLDE3MC45LDIwMi45NiwxNzIuMjcsMjAzLjA3LDE3My42OHogTTIwMy4yMiwxNzUuNjdjLTIuODksNi43OS0zLjM0LDE0LjE1LTIuMjIsMjEuMzImIzEwOyYjOTsmIzk7Yy0yLjU1LTEuNTUtNS4wNC0zLjE2LTcuNDEtNC44OWMtMC44Ni02LjY3LTAuMTYtMTIuOTYsMy4xLTE3LjY0QzE5OC44LDE3NS4xNiwyMDEsMTc1LjU2LDIwMy4yMiwxNzUuNjd6IE0yNzEuNjcsMjMzLjM2JiMxMDsmIzk7JiM5O2MtMS4yNSwxLjYyLTIuNiwzLjA4LTQuMDMsNC4zOWMtMi4wOC0wLjYtMy45Ni0xLjE4LTUuNi0xLjY5bC0wLjM4LTAuMTJjLTIuMzMtMC43Mi00LjYxLTEuNTQtNi44MS0yLjQ1JiMxMDsmIzk7JiM5O2MtMC4xMS0xLjQyLTAuMjctMi44Mi0wLjQ3LTQuMTljMC0wLjAyLTAuMDEtMC4wNS0wLjAxLTAuMDdjMS4wNi0wLjg1LDIuMTEtMS43OCwzLjE1LTIuNzljOC42NC04LjM3LDE0LjQ4LTE4Ljc4LDE3LjgzLTMyLjA0JiMxMDsmIzk7JiM5O2MyLjAxLDIuMzIsMy45Nyw0LjY4LDUuODYsNy4wOWMtMC4yMSwzLjAyLTAuNTEsNS45My0wLjc5LDguNjFsLTAuMTEsMS4wNGMtMC4yMSwyLjA0LTAuNDQsNC4wNi0wLjY5LDYuMDUmIzEwOyYjOTsmIzk7QzI3Ny44MywyMjMuMjMsMjc1LjIzLDIyOC43NywyNzEuNjcsMjMzLjM2eiBNMjc4LjM2LDIyNi4xNmMtMC43NSw0LjcxLTEuNjIsOS4yOC0yLjYsMTMuN2MtMi4wOC0wLjQ4LTQuMDUtMC45OS01Ljg3LTEuNDkmIzEwOyYjOTsmIzk7YzEuMTgtMS4xNiwyLjMtMi40MiwzLjM2LTMuNzlDMjc1LjIyLDIzMi4wNSwyNzYuOTEsMjI5LjIyLDI3OC4zNiwyMjYuMTZ6IE0yNTUsMjM1LjdjMS45OCwwLjc5LDQuMDEsMS41MSw2LjA4LDIuMTVsMC4zOCwwLjEyJiMxMDsmIzk7JiM5O2MxLjMxLDAuNCwyLjc2LDAuODUsNC4zNSwxLjMyYy0zLjI3LDIuNTUtNi45NSw0LjM1LTExLjAzLDUuMzlDMjU1LjA4LDI0MS42OCwyNTUuMTQsMjM4LjY2LDI1NSwyMzUuN3ogTTI3NS45MywxOTIuMDImIzEwOyYjOTsmIzk7YzEuMS00LjkxLDEuODktMTAuMiwyLjM2LTE1LjkxYzMuMDEsNi41NywzLjQ1LDE0LjY4LDMuMSwyMi4zOUMyNzkuNjIsMTk2LjMsMjc3LjgsMTk0LjE0LDI3NS45MywxOTIuMDJ6IE0yNzguMjIsMTY0LjAxJiMxMDsmIzk7JiM5O2MtMC40MywyLjAxLTAuODcsNC4wNy0xLjIzLDYuMTNjLTUuOTEtNy40Mi0xNS41OC05LjU2LTI1LjAxLTExLjFjLTcuMzYtMS4yLTE1LjM5LTIuNTEtMjMuNC0zLjEzYzAuMDktMC43OCwwLjEzLTEuNTYsMC4xMy0yLjM1JiMxMDsmIzk7JiM5O2MxMS40OC02LjE1LDI0LjU2LTkuNDUsMzUuNDktMTAuMDZjMi4wNC0wLjEyLDQuMDUtMC4xMiw2LjA1LTAuMDFjMi44Niw0Ljk3LDUuMzMsMTAuMTgsNy4zNywxNS41NmMwLjM2LDAuOTQsMC43LDEuOTMsMS4wMywyLjk2JiMxMDsmIzk7JiM5O0MyNzguNSwxNjIuNjksMjc4LjM2LDE2My4zNSwyNzguMjIsMTY0LjAxeiBNMjUxLjY2LDE2MS4wMmM5LjQzLDEuNTQsMTkuMDgsMy42NywyNC40NSwxMS4yN2MwLjE2LDAuMjMsMC4zMiwwLjQ2LDAuNDcsMC42OSYjMTA7JiM5OyYjOTtjLTAuMDgsMC42NS0wLjE1LDEuMy0wLjIsMS45NmMtMC40Miw1LjQ1LTEuMTEsMTAuNTItMi4xLDE1LjI0Yy0yLjM1LTIuNTktNC43OC01LjEyLTcuMjgtNy41OCYjMTA7JiM5OyYjOTtjLTEwLjI2LTEwLjA4LTIzLjg3LTIxLjU5LTM5LjI3LTIyLjY2YzAuMjItMC42NywwLjM5LTEuMzUsMC41NC0yLjAzQzIzNi4yNSwxNTguNTEsMjQ0LjMsMTU5LjgyLDI1MS42NiwxNjEuMDJ6IE0yNjUuNiwxODQuMDImIzEwOyYjOTsmIzk7YzIuODEsMi43Niw1LjUzLDUuNjEsOC4xNSw4LjU1Yy0zLjIsMTMuNTQtOC45NiwyNC4wNi0xNy42MSwzMi40NGMtMC43LDAuNjgtMS40MSwxLjMyLTIuMTIsMS45M2MtMy4xNS0xOC4xLTEyLjQ5LTM2LTI1LjI2LTQ4LjI5JiMxMDsmIzk7JiM5O2MtMS41Ny0xLjUxLTUuMTYtNC43NS05LjY0LTcuNDJjMS43LTEuMTcsMy4yNi0yLjU2LDQuNjEtNC4xNmMxLjQtMS42NiwyLjQ3LTMuMzksMy4yNS01LjE3JiMxMDsmIzk7JiM5O0MyNDEuOTksMTYyLjY1LDI1NS40NSwxNzQuMDUsMjY1LjYsMTg0LjAyeiBNMTY1LjE4LDIwNi45NWMxLjY2LTMuNzcsMy45LTcuNjIsNi41OS0xMS40YzAuNi0wLjI3LDEuMjMtMC41MSwxLjktMC43MSYjMTA7JiM5OyYjOTtjNC45NC0xLjUxLDkuOTItMC45MywxNC41MiwwLjk0YzAuMDIsMC42OSwwLjAxLDEuMzctMC4wNSwyLjA1Yy0xLjA5LDEyLjYyLTEyLjg2LDIwLjc2LTI2LjM3LDI1Ljk3Yy0wLjEtMC42Ni0wLjItMS4zMy0wLjI3LTEuOTkmIzEwOyYjOTsmIzk7Yy0wLjA3LTAuNTktMC4xMy0xLjE4LTAuMTctMS43OEMxNjIuMDIsMjE1LjYyLDE2My4yOSwyMTEuMjUsMTY1LjE4LDIwNi45NXogTTE2MS43MiwyMTAuMjdjMC44MS00LjU1LDIuNTgtOC43NSw1LjY1LTExLjc0JiMxMDsmIzk7JiM5O2MtMS41NiwyLjU0LTIuOTEsNS4wOS00LjAyLDcuNjFDMTYyLjc1LDIwNy41MSwxNjIuMjEsMjA4Ljg4LDE2MS43MiwyMTAuMjd6IE0xODYuODUsMTg5LjJjMC41MywxLjQ2LDAuOTEsMi45MiwxLjEzLDQuMzcmIzEwOyYjOTsmIzk7Yy0yLjc1LTEuMDEtNS42Mi0xLjU5LTguNTUtMS41OWMtMS44NCwwLTMuNjksMC4yMy01LjU0LDAuNzJjMi4zOC0zLjA3LDUuMDQtNi4wNiw3LjkxLTguOSYjMTA7JiM5OyYjOTtDMTgzLjMzLDE4NS43MywxODUuMDMsMTg3LjUyLDE4Ni44NSwxODkuMnogTTE4MC41MSwxNzguMzNjMC41OCwwLjcyLDEuMTMsMS40NiwxLjY1LDIuMTljLTAuMDUsMC4wNS0wLjExLDAuMS0wLjE2LDAuMTUmIzEwOyYjOTsmIzk7QzE4MS40NywxNzkuOTIsMTgwLjk3LDE3OS4xNCwxODAuNTEsMTc4LjMzeiBNMTgzLjI1LDE4Mi4zOGMwLjAzLTAuMDMsMC4wNy0wLjA3LDAuMS0wLjFjMC4yMiwwLjMzLDAuNDMsMC42NywwLjYzLDEuMDEmIzEwOyYjOTsmIzk7QzE4My43MywxODIuOTksMTgzLjQ5LDE4Mi42OSwxODMuMjUsMTgyLjM4eiBNMTkwLjEzLDE5OGMwLjA0LTAuNDQsMC4wNi0wLjg3LDAuMDctMS4zMWMwLjg0LDAuNDIsMS42NiwwLjg4LDIuNDcsMS4zOCYjMTA7JiM5OyYjOTtjMS43NSw3LjEzLDQuNjUsMTMuMzMsNi4xNCwxNi4yNmMyLjcsNS4zLDYuMzcsMTAuODIsMTAuODksMTUuODJjLTAuNTQsMy40MS0xLjk1LDYuNzMtNC41MSw5LjcxYy0yLjc3LDMuMjMtNi4zLDUuNTQtMTAuMjYsNy4wOCYjMTA7JiM5OyYjOTtjLTEuOTEtMS41Ni0zLjkyLTMuMDgtNi4wMy00LjU3Yy03LjktNS41NS0xNi45MS0xMC4zNS0yNi4yMi0xNC4wOWMtMC4yMS0wLjg1LTAuMzktMS42OS0wLjU2LTIuNTQmIzEwOyYjOTsmIzk7QzE3Ni4zNSwyMjAuMjksMTg4Ljk1LDIxMS42MywxOTAuMTMsMTk4eiBNMTg5LjY0LDE5MS41OWMwLjY3LDAuNTQsMS4zNSwxLjA3LDIuMDUsMS41OWMwLjExLDAuNzYsMC4yNSwxLjUxLDAuMzksMi4yNSYjMTA7JiM5OyYjOTtjLTAuNjUtMC4zNS0xLjMxLTAuNjgtMS45Ny0wLjk5QzE5MC4wMSwxOTMuNSwxODkuODYsMTkyLjU1LDE4OS42NCwxOTEuNTl6IE0yMTUuMDYsMTcxLjI5Yy0yLjcsMS4zMi01LjY1LDIuMTItOC42MywyLjM2JiMxMDsmIzk7JiM5O2MwLjc5LTEuNDUsMS43Mi0yLjg2LDIuNzktNC4yM2MwLjAyLTAuMDIsMC4wNC0wLjA1LDAuMDUtMC4wN0MyMTEuMjMsMTY5LjcsMjEzLjE5LDE3MC40LDIxNS4wNiwxNzEuMjl6IE0yMTAuNjksMTY3LjYxJiMxMDsmIzk7JiM5O2MxLjI4LTEuNDksMi42NS0yLjksNC4wOS00LjI1YzMuMzgtMC45Miw2LjczLTEuNDUsMTAtMS41MWMtMC42NywxLjM0LTEuNTIsMi42NS0yLjU4LDMuOTJjLTEuNDUsMS43Mi0zLjE2LDMuMTctNS4wNCw0LjM1JiMxMDsmIzk7JiM5O0MyMTUuMTEsMTY5LjA1LDIxMi45MiwxNjguMTUsMjEwLjY5LDE2Ny42MXogTTIxNy4yMSwxNzIuNDFjNC42OCwyLjY0LDguNTUsNi4xMywxMC4xNiw3LjY4YzEyLjczLDEyLjI1LDIxLjk2LDMwLjIzLDI0Ljg2LDQ4LjI5JiMxMDsmIzk7JiM5O2MtMS4xMiwwLjg1LTIuMjYsMS42MS0zLjQsMi4yOWMtNi41NC0zLjQ0LTEyLjMtNy43Ny0xNy4wMy0xMi44NGMtNC41NS00Ljg4LTEwLjM1LTguODEtMTYuMzgtMTIuNDMmIzEwOyYjOTsmIzk7Yy0zLjU5LTcuNzItOC43Mi0xOS41LTEwLjEyLTI5LjQ0YzAuMDQtMC4wOSwwLjA4LTAuMTcsMC4xMi0wLjI2QzIwOS41MSwxNzUuNTQsMjEzLjYxLDE3NC40MiwyMTcuMjEsMTcyLjQxeiBNMjUyLjU1LDIzMC42MiYjMTA7JiM5OyYjOTtjMC4wOCwwLjY1LDAuMTYsMS4zMSwwLjIyLDEuOTdjLTAuNjItMC4yOC0xLjI0LTAuNTctMS44NS0wLjg3QzI1MS40NywyMzEuMzcsMjUyLjAxLDIzMSwyNTIuNTUsMjMwLjYyeiBNMjExLjYzLDIyMi41NyYjMTA7JiM5OyYjOTtjNSw2Ljg4LDExLjIxLDExLjQzLDE3LjkyLDEzLjE1YzIuMDEsMy4wNyw0LjA3LDYuMDMsNi4xOCw4Ljg1Yy05LjM4LTIuMzYtMTcuNDktOC4xMi0yMy45My0xNS4wNSYjMTA7JiM5OyYjOTtDMjEyLjA3LDIyNy4yLDIxMS45OSwyMjQuODcsMjExLjYzLDIyMi41N3ogTTIxNy41NiwyMDkuOTRsLTAuNTctMS4yYy0wLjAxLTAuMDItMC4wMi0wLjA0LTAuMDMtMC4wNiYjMTA7JiM5OyYjOTtjNC45NiwzLjExLDkuNjMsNi40OSwxMy4zNywxMC41YzQuNTksNC45MywxMC4xMyw5LjE4LDE2LjM4LDEyLjYxYy00LjU0LDIuMjItOS4yMSwzLjA4LTEzLjg0LDIuNTFjLTAuNy0wLjA5LTEuMzktMC4yLTIuMDgtMC4zNiYjMTA7JiM5OyYjOTtDMjI2LjA3LDIyNi42NCwyMjEuNjUsMjE4LjYyLDIxNy41NiwyMDkuOTR6IE0yMTUuMTgsMjA5LjZsMC41NywxLjJjMy43Nyw4LDcuODMsMTUuNDUsMTIuMTQsMjIuMzEmIzEwOyYjOTsmIzk7Yy02LjI2LTIuMjYtMTEuOTktNy4yNS0xNi40OC0xNC40NmMtMC41MS0wLjgxLTEtMS42NS0xLjQ4LTIuNWMtMC44OC0yLjM1LTEuOTktNC41OS0zLjI1LTYuNjVjLTEuMTUtMi43NC0yLjExLTUuNTktMi44My04LjUmIzEwOyYjOTsmIzk7YzEuMjksMC43NSwyLjU4LDEuNDksMy44NywyLjIyYzIuMDQsMS4xNyw0LjExLDIuMzUsNi4xNCwzLjU2QzIxNC4zNCwyMDcuODEsMjE0Ljc4LDIwOC43NSwyMTUuMTgsMjA5LjZ6IE0yMDQuMzYsMjA5LjU3JiMxMDsmIzk7JiM5O2MwLjE4LDAuMjgsMC4zNywwLjU3LDAuNTUsMC44NmMwLjk2LDIuMjcsMi4wNCw0LjQ3LDMuMjEsNi41NmMxLjIzLDMuMzQsMS45NSw2LjkxLDEuODQsMTAuNDRjLTMuODMtNC40OC02Ljk5LTkuMzMtOS4zNi0xNCYjMTA7JiM5OyYjOTtjLTIuMTQtNC4yLTQuMDUtOC44OC01LjM4LTEzLjYyQzE5OC44NiwyMDIuNTUsMjAyLjAyLDIwNiwyMDQuMzYsMjA5LjU3eiBNMTk0LjQ1LDE5Ni44NmMtMC4xNS0wLjY2LTAuMjktMS4zMi0wLjQxLTEuOTgmIzEwOyYjOTsmIzk7YzIuNCwxLjY3LDQuOTEsMy4yMyw3LjQ0LDQuNzRjMC4zMSwxLjQ2LDAuNjcsMi45MSwxLjEsNC4zM0MyMDAuMjQsMjAxLjI4LDE5Ny40OCwxOTguODMsMTk0LjQ1LDE5Ni44NnogTTE4Ny43NCwyNDQuMDImIzEwOyYjOTsmIzk7YzEuNzIsMS4yMSwzLjM3LDIuNDQsNC45NSwzLjdjLTYuNDUsMS45Ny0xMy44MiwyLjEtMjAuODksMC45NWMtMy43Ny01LjY1LTYuNjYtMTEuNzUtOC40OC0xNy45NiYjMTA7JiM5OyYjOTtDMTcxLjk4LDIzNC4zMSwxODAuMzUsMjM4LjgzLDE4Ny43NCwyNDQuMDJ6IE0xOTQuNjEsMjQ5LjI4YzEwLjIyLDguNTYsMTcuMzUsMTguMTcsMjEuMDIsMjguMjUmIzEwOyYjOTsmIzk7Yy05LjQ3LTEuMDEtMTguNjctNS4yMS0yNS42OS0xMC4xN2MtNi40MS00LjUzLTEyLjAzLTEwLjE2LTE2LjU2LTE2LjQyQzE4MC40OCwyNTEuOSwxODcuOTgsMjUxLjYyLDE5NC42MSwyNDkuMjh6IE0yMTYuMzMsMjc5LjYmIzEwOyYjOTsmIzk7YzAuMTksMC42MSwwLjM4LDEuMjMsMC41NCwxLjg1Yy0wLjg4LTAuODMtMS44NS0xLjU2LTIuOTEtMi4xMUMyMTQuNzUsMjc5LjQ0LDIxNS41NCwyNzkuNTMsMjE2LjMzLDI3OS42eiBNMTk2LjcyLDI0OC40NSYjMTA7JiM5OyYjOTtjMy43Ni0xLjYzLDcuMTctNC4wMSw5Ljk4LTcuMjhjMi40NS0yLjg2LDMuOTUtNS45OSw0LjY5LTkuMjFjNy4wNSw3LjI1LDE1Ljk1LDEzLjEyLDI2LjIzLDE1LjA2YzIuODMsMy42Myw1Ljc1LDcuMDMsOC43NSwxMC4yMSYjMTA7JiM5OyYjOTtjMC43MywwLjc4LDEuNTQsMS42MywyLjQyLDIuNTRjLTIuODgsNi4wNi03LjM2LDExLjI0LTEzLjkxLDE0LjU1Yy01LjQ1LDIuNzUtMTEuMjgsMy43LTE3LjA2LDMuMzkmIzEwOyYjOTsmIzk7QzIxNC4yMSwyNjcuMjYsMjA3LjA2LDI1Ny4zMSwxOTYuNzIsMjQ4LjQ1eiBNMjQ3LjgxLDI1NS44NWMtMi40OS0yLjY0LTQuOTMtNS40NC03LjMtOC4zOWMwLjAzLDAsMC4wNiwwLjAxLDAuMSwwLjAxJiMxMDsmIzk7JiM5O2M0LjIyLDAuNDYsOC4xOCwwLjM5LDExLjg2LTAuMjNjLTAuNTQsMy42NC0xLjQ1LDcuMjEtMi44MiwxMC41NUMyNDguOTksMjU3LjEsMjQ4LjM4LDI1Ni40NSwyNDcuODEsMjU1Ljg1eiBNMjQwLjgyLDI0NS40OCYjMTA7JiM5OyYjOTtjLTAuNzEtMC4wOC0xLjQxLTAuMTctMi4xLTAuMjljLTIuMTktMi44NC00LjMzLTUuODItNi40MS04LjkzYzAuMTEsMC4wMSwwLjIxLDAuMDMsMC4zMiwwLjA0YzUuNDcsMC42NywxMC45Ni0wLjQ4LDE2LjI0LTMuMzYmIzEwOyYjOTsmIzk7YzEuMzMsMC42OCwyLjY5LDEuMzIsNC4wOCwxLjkyYzAuMjEsMy4zOCwwLjE1LDYuODUtMC4yMiwxMC4yOUMyNDkuMDYsMjQ1LjgzLDI0NS4wOCwyNDUuOTUsMjQwLjgyLDI0NS40OHogTTIyNi41NiwxNTUuNzcmIzEwOyYjOTsmIzk7Yy0wLjUyLTAuMDMtMS4wNC0wLjA2LTEuNTYtMC4wOWMwLjU0LTAuMzMsMS4wOS0wLjY2LDEuNjUtMC45OEMyMjYuNjMsMTU1LjA2LDIyNi42LDE1NS40MiwyMjYuNTYsMTU1Ljc3eiBNMjI2LjIzLDE1Ny43NiYjMTA7JiM5OyYjOTtjLTAuMTYsMC43LTAuMzYsMS40LTAuNiwyLjA5Yy0wLjA4LDAtMC4xNSwwLTAuMjMsMGMtMi40MiwwLTQuODcsMC4yNC03LjM0LDAuNjljMS4yOS0xLjAzLDIuNjMtMi4wMiw0LjAxLTIuOTYmIzEwOyYjOTsmIzk7QzIyMy40NSwxNTcuNjEsMjI0Ljg0LDE1Ny42NywyMjYuMjMsMTU3Ljc2eiBNMjEzLjg2LDE2MS41Yy0yLjYsMC43Mi01LjE5LDEuNjUtNy43NiwyLjc3YzAuMjMtMC41NiwwLjUtMS4wOSwwLjgxLTEuNTkmIzEwOyYjOTsmIzk7YzIuMDUtMy4zLDUuODItNS4wMiwxMS4yMi01LjEyYzAuMTgsMCwwLjM2LTAuMDEsMC41NC0wLjAxQzIxNi45OSwxNTguOCwyMTUuMzksMTYwLjExLDIxMy44NiwxNjEuNXogTTIxMC42MiwxNjQuNjkmIzEwOyYjOTsmIzk7Yy0wLjc2LDAuODEtMS40OSwxLjY1LTIuMiwyLjUxYy0wLjY1LTAuMDgtMS4zMS0wLjEyLTEuOTYtMC4xMmMtMC40LDAtMC44LDAuMDItMS4yLDAuMDVjMC4wMS0wLjA3LDAuMDMtMC4xNCwwLjA0LTAuMiYjMTA7JiM5OyYjOTtDMjA3LjA3LDE2Ni4wOSwyMDguODQsMTY1LjM0LDIxMC42MiwxNjQuNjl6IE0yMDUuMywxNjkuMTRjMC41NS0wLjA1LDEuMS0wLjA2LDEuNjUtMC4wNGMtMC43NCwxLjAyLTEuNDEsMi4wNi0yLjAyLDMuMTImIzEwOyYjOTsmIzk7Yy0wLjA0LTEuMDUtMC4wMy0yLjA3LDAuMDUtMy4wNEMyMDUuMSwxNjkuMTYsMjA1LjIsMTY5LjE1LDIwNS4zLDE2OS4xNHogTTIxMi40LDIwMy42MWMtMS4yMy0wLjcxLTIuNDYtMS40Mi0zLjY5LTIuMTImIzEwOyYjOTsmIzk7Yy0xLjgxLTEuMDQtMy42NC0yLjA4LTUuNDQtMy4xNWMtMS4yLTYuMjYtMS4xOS0xMi43MSwwLjY3LTE4Ljc4QzIwNS42NSwxODcuODksMjA5LjMzLDE5Ni44MywyMTIuNCwyMDMuNjF6IE0xOTEuMzUsMTkwLjM5JiMxMDsmIzk7JiM5O2MtMC45Ni0wLjc2LTEuOS0xLjU1LTIuOC0yLjM2Yy0wLjkxLTIuNC0yLjE3LTQuNzktMy43LTcuMTNjMi45NS0yLjY4LDYuMDktNS4xOSw5LjMzLTcuNDZjMC4yLDAuMDksMC40LDAuMTksMC42LDAuMjgmIzEwOyYjOTsmIzk7QzE5MS41NywxNzguNTcsMTkwLjg0LDE4NC41MSwxOTEuMzUsMTkwLjM5eiBNMTgzLjY1LDE3OS4xNGMtMS43NS0yLjQ0LTMuNzctNC44Mi01Ljk5LTcuMDljLTMuMDItOS4yNS0xLjEyLTIwLjU1LDAuOTgtMzAuOTMmIzEwOyYjOTsmIzk7YzAuMDksMS40MywwLjIsMi44OSwwLjMzLDQuMzljMS4xOCwxMy4xLDUuNTksMjIuMTIsMTMuMTMsMjYuOGMwLDAsMC4wMSwwLDAuMDEsMC4wMUMxODkuMTcsMTc0LjQsMTg2LjM0LDE3Ni43LDE4My42NSwxNzkuMTR6JiMxMDsmIzk7JiM5OyBNMTgwLjU0LDE4Mi4xYy0zLjc5LDMuNzYtNy4yMiw3Ljc4LTEwLjE1LDExLjg5Yy05LjIsNC40OS0xMS44MiwxNS43MS0xMS4wOSwyNS45MmMtMC4yNiwxLjY2LTAuNDUsMy4zMy0wLjU3LDUuMDEmIzEwOyYjOTsmIzk7Yy0wLjksMC4zMS0xLjgsMC42MS0yLjcsMC45Yy05LjA5LTMuMTItMTguMjgtNS4xOC0yNi44MS01LjkxYy0xLjcyLTIuNzctMy4yMy01LjctNC41MS04Ljc1Yy00Ljg2LTExLjU1LTguMDItNDEuMzgsMS42MS01My41MSYjMTA7JiM5OyYjOTtjMy41Ni00LjQ5LDguNi02LjIxLDE0Ljk5LTUuMTJjOS4zMSwxLjU5LDI0LjE2LDEwLjA3LDM0LjY1LDIwLjY5YzAuMDIsMC4wNiwwLjA0LDAuMTIsMC4wNywwLjE5JiMxMDsmIzk7JiM5O0MxNzcuMTYsMTc2LjYyLDE3OC43LDE3OS40OSwxODAuNTQsMTgyLjF6IE0xMzAuNjgsMjMxLjQ2Yy0zLjM4LDAuNDktNi4yMiwwLjgxLTguMjIsMWMtMS4zNC0zLjU3LTIuODEtNy4xNC00LjM4LTEwLjY4JiMxMDsmIzk7JiM5O2MyLjc2LTAuMjEsNS41NS0wLjIxLDguMjItMC4wN0MxMjguNDYsMjI0Ljc2LDEyOS45OSwyMjguMTYsMTMwLjY4LDIzMS40NnogTTEwNS4wMSwyNDUuMDhjLTIuMzYtMS4yMS00LjUyLTIuODctNi40Ni00Ljk1JiMxMDsmIzk7JiM5O2MtMC45Ny0xLjA1LTEuODctMi4xNy0yLjY4LTMuMzVjMC4xMS0wLjQ5LDAuMjUtMC45NywwLjQtMS40NGMzLjQtMC4wMyw2LjY3LTAuMDgsOS43My0wLjE0Yy0wLjY1LDIuNTQtMS4xNSw1LjE1LTEuMTgsNy44NSYjMTA7JiM5OyYjOTtDMTA0LjgxLDI0My42OCwxMDQuOSwyNDQuMzYsMTA1LjAxLDI0NS4wOHogTTk3LjA0LDIzMy4zM2MyLjMtNS4wOCw2LjY0LTguMSwxMS43OS05LjhjLTAuMjcsMS45LTAuNjUsMy43OS0xLjE2LDUuNjYmIzEwOyYjOTsmIzk7Yy0wLjIxLDAuNzktMC40NCwxLjU3LTAuNjYsMi4zNWMtMC4xNiwwLjU1LTAuMzEsMS4xLTAuNDcsMS42NUMxMDMuNTYsMjMzLjI1LDEwMC4zNiwyMzMuMjksOTcuMDQsMjMzLjMzeiBNMTA4LjA3LDIzNS4xNiYjMTA7JiM5OyYjOTtjNS40LTAuMTIsOS45Ny0wLjMsMTMuMDUtMC41NmMxLjM4LDMuNzUsMi42Miw3LjUxLDMuNzMsMTEuMjdjLTIuMTYsMS4wNS00Ljg2LDEuNjQtOC4wNCwxLjczYy0zLjQ5LDAuMS02LjY5LTAuNDItOS42Mi0xLjU0JiMxMDsmIzk7JiM5O2MtMC4wNC0wLjI4LTAuMDgtMC41NS0wLjEzLTAuODJjLTAuMTMtMC44MS0wLjI1LTEuNTctMC4yNC0yLjE3QzEwNi44NSwyNDAuMzcsMTA3LjM4LDIzNy43OCwxMDguMDcsMjM1LjE2eiBNMTE3LjIxLDIxOS44NSYjMTA7JiM5OyYjOTtjLTEuMTktMi42LTIuNDQtNS4xOC0zLjc1LTcuNzZjNC4zNywxLjI3LDguMjQsNC4wNiwxMS4yMyw3LjU1QzEyMi4wNCwyMTkuNTcsMTE5LjU0LDIxOS42MywxMTcuMjEsMjE5Ljg1eiBNMTE1Ljk4LDIyMS45OSYjMTA7JiM5OyYjOTtjMS41OSwzLjU0LDMuMDYsNy4wOSw0LjQxLDEwLjY2Yy0yLjksMC4yMi02Ljk5LDAuMzgtMTEuNzcsMC41YzAuMS0wLjM1LDAuMi0wLjcsMC4zLTEuMDZjMC4yMy0wLjc5LDAuNDUtMS41OCwwLjY3LTIuMzgmIzEwOyYjOTsmIzk7YzAuNjEtMi4yNSwxLjA0LTQuNTIsMS4zMy02Ljc5QzExMi41NiwyMjIuNSwxMTQuMjYsMjIyLjIsMTE1Ljk4LDIyMS45OXogTTEwOS4wOSwyMjEuMzRjLTYuOTUsMi4wNy0xMS43Myw2LTE0LjExLDExLjY4JiMxMDsmIzk7JiM5O2MtMC4wNSwwLjExLTAuMDksMC4yMi0wLjEzLDAuMzJjLTAuMzUsMC0wLjcsMC4wMS0xLjA0LDAuMDFjLTEuNzQtMy4yOS0yLjk5LTYuOS0zLjg1LTEwLjU2YzAuNzMtMS44NywxLjY0LTMuNTcsMi43NS01LjA1JiMxMDsmIzk7JiM5O2MzLjY2LTQuODksOS4yNS03LjAzLDE2LjYxLTYuMzlDMTA5LjQ3LDIxNC42NSwxMDkuNDMsMjE4LDEwOS4wOSwyMjEuMzR6IE05NS40MiwyMzkuNTRjMC41MywwLjY4LDEuMDksMS4zMywxLjY3LDEuOTYmIzEwOyYjOTsmIzk7YzIuNDQsMi42Miw1LjE5LDQuNjEsOC4yNSw1Ljk3YzAuMDcsMC45LDAuMDIsMS43Mi0wLjMzLDIuMjhjLTAuNSwwLjc5LTEuNTgsMS4xNi0yLjczLDEuNTZjLTAuOTgsMC4zNC0xLjk5LDAuNjgtMi44LDEuMzQmIzEwOyYjOTsmIzk7Yy0wLjczLDAuNTktMS4zNCwxLjIxLTEuODMsMS44NUM5NS45NSwyNDkuNDEsOTQuOTUsMjQ0LjMsOTUuNDIsMjM5LjU0eiBNMTAwLjc0LDI1NC4yYzAuNTQtMC40MywxLjM0LTAuNzEsMi4xOS0xJiMxMDsmIzk7JiM5O2MxLjM2LTAuNDcsMi45LTEsMy43Ny0yLjM5YzAuNDgtMC43NiwwLjY1LTEuNjQsMC42Ni0yLjU1YzIuOTIsMC45OSw2LjA5LDEuNDMsOS41LDEuMzVjMy4zMi0wLjA5LDYuMTktMC43LDguNTUtMS43OSYjMTA7JiM5OyYjOTtjMCwwLjAxLDAsMC4wMSwwLDAuMDJjMi42MSw5LjIyLDYuOTcsMjQuNjQsMi44NiwzNS42MWMtMS40OSwzLjk3LTMuNCw2LjAzLTUuNjcsNi4xM2MtMC4wNiwwLTAuMTIsMC0wLjE4LDAmIzEwOyYjOTsmIzk7Yy03LjI4LDAtMTcuMjUtMTcuNjktMjAuMi0yMy45NGMtMS4zNC0yLjg0LTIuNjQtNS43OS0zLjc1LTguNzdDOTguOTgsMjU1LjksOTkuNzEsMjU1LjAzLDEwMC43NCwyNTQuMnogTTEyMy4xOCwyMzQuNCYjMTA7JiM5OyYjOTtjMS45OS0wLjIsNC42Ni0wLjUxLDcuODEtMC45N2MwLjEsMC44OSwwLjEyLDEuNzcsMC4wOCwyLjYyYy0wLjE5LDMuODQtMS43Miw2Ljc5LTQuNDQsOC43NSYjMTA7JiM5OyYjOTtDMTI1LjU5LDI0MS4zNCwxMjQuNDQsMjM3Ljg3LDEyMy4xOCwyMzQuNHogTTEzMC45NSwyMjUuOThjMS4yNiwxLjY3LDIuNjEsMy4yOCw0LjAyLDQuODJjLTAuOCwwLjEzLTEuNTcsMC4yNi0yLjMzLDAuMzgmIzEwOyYjOTsmIzk7QzEzMi4yOCwyMjkuNDUsMTMxLjcxLDIyNy43LDEzMC45NSwyMjUuOTh6IE0xMzAuNiwyMjIuMDVjNy4xLDAuNzMsMTQuNjEsMi4zOCwyMi4xMiw0Ljc4Yy01LjMzLDEuNTQtMTAuNjQsMi43LTE1LjM5LDMuNTYmIzEwOyYjOTsmIzk7QzEzNC44NiwyMjcuODEsMTMyLjYxLDIyNS4wMiwxMzAuNiwyMjIuMDV6IE0xNTUuOTQsMjI3Ljg5YzAuODksMC4zMSwxLjc3LDAuNjMsMi42NSwwLjk2Yy0wLjAxLDUuNjIsMC44LDExLjMyLDIuNCwxNyYjMTA7JiM5OyYjOTtjLTguMjYtMy0xNS43My03LjczLTIxLjk3LTEzLjc3QzE0NC4yOCwyMzEuMDksMTUwLjEzLDIyOS43MywxNTUuOTQsMjI3Ljg5eiBNMTYwLjYzLDIyOS42M2MwLjEyLDAuMDUsMC4yMywwLjA5LDAuMzUsMC4xNCYjMTA7JiM5OyYjOTtjMS42Nyw2LjMzLDQuNDUsMTIuNTcsOC4xMSwxOC40Yy0xLjkzLTAuNDEtMy44My0wLjkxLTUuNjctMS40OUMxNjEuNzEsMjQxLjEyLDE2MC43MywyMzUuMzksMTYwLjYzLDIyOS42M3ogTTE3MC42NCwyNTAuNTEmIzEwOyYjOTsmIzk7YzQuODUsNy4wOCwxMS4wMiwxMy40NSwxOC4xNSwxOC40OGM1LjU0LDMuOTIsMTIuNCw3LjM3LDE5LjczLDkuMjVjLTEuMTQsMC4xMy0yLjI4LDAuNDktMy40MSwxLjA3JiMxMDsmIzk7JiM5O2MtNC4yMSwyLjE1LTYuMiw2LjMxLTYuOTYsMTAuOTZjLTE1LjMxLTkuMjItMjguMDQtMjQuMzMtMzMuOTUtNDEuMjlDMTY2LjI1LDI0OS42LDE2OC40MSwyNTAuMTEsMTcwLjY0LDI1MC41MXogTTE5OS44MiwyOTMuNTYmIzEwOyYjOTsmIzk7YzAuOTYsMC41MiwxLjkyLDEuMDIsMi45LDEuNWMzLjc0LDEuODQsOS4wMSw0LjAxLDE1LjA3LDUuMzFjLTEuODEsNy42Ni02LjkyLDEzLjA2LTEzLjMyLDE2Ljg3Yy0xLjA3LTIuMzQtMS45Ni00Ljc4LTIuNjQtNy4yOSYjMTA7JiM5OyYjOTtDMjAxLjIzLDMwNy43MywxOTkuNDQsMzAwLjQyLDE5OS44MiwyOTMuNTZ6IE0yMDMuNTksMjkzLjI3Yy0xLjItMC41OS0yLjQtMS4yMi0zLjU4LTEuODhjMC41OC00LjQxLDIuMjYtOC4zNyw1Ljk5LTEwLjI4JiMxMDsmIzk7JiM5O2MyLjA2LTEuMDYsNC4xNC0xLjE5LDYuMTYtMC40YzIuMywwLjksNC4yMiwyLjg1LDUuNjYsNC45OWMwLjU2LDMuMTksMC43OCw2LjQxLDAuNjQsOS42NGMtMC4wNCwxLjA2LTAuMTUsMi4wOC0wLjMsMy4wNyYjMTA7JiM5OyYjOTtDMjEyLjMyLDI5Ny4xNSwyMDcuMjEsMjk1LjA0LDIwMy41OSwyOTMuMjd6IE0yNDUuMzksMjk1LjFjMC4wNi05LjM4LDAuOTktMjIuNTIsOC4zMS0yOC4yNmMwLjQ4LTAuMzgsMC45OC0wLjcxLDEuNDctMC45OSYjMTA7JiM5OyYjOTtjMy4wMiwyLjU5LDYuMzksNS4wNSw5Ljk3LDYuNzdjLTQuMTksOC43OS0xMC4zMywxNy43OC0xOS43NiwyMi43OUMyNDUuMzgsMjk1LjMxLDI0NS4zOCwyOTUuMiwyNDUuMzksMjk1LjF6IE0yNTcuMjYsMjY1JiMxMDsmIzk7JiM5O2MxLjA3LTAuMjgsMi4xNy0wLjMzLDMuMjctMC4xNWMyLjI1LDAuMzcsNC40OSwxLjczLDYuMzgsMy44M2MtMC4zLDAuNy0wLjYxLDEuNDItMC45MywyLjEzJiMxMDsmIzk7JiM5O0MyNjIuOTEsMjY5LjMzLDI1OS45NiwyNjcuMjQsMjU3LjI2LDI2NXogTTI2MC44NiwyNjIuODhjLTAuNTMtMC4wOS0xLjA2LTAuMTMtMS42LTAuMTNjLTEuMjcsMC0yLjUzLDAuMjUtMy43NiwwLjc0JiMxMDsmIzk7JiM5O2MtMS41Ni0xLjM5LTMuMDItMi44MS00LjM0LTQuMTRjMS43LTMuOTUsMi43OS04LjIsMy4zNy0xMi41MmM1LjExLTEuMTgsOS42Ni0zLjQ3LDEzLjYyLTYuODVjMi4xOCwwLjYyLDQuNTgsMS4yNSw3LjE3LDEuODUmIzEwOyYjOTsmIzk7Yy0xLjYsNi45My0zLjQ4LDEzLjQ4LTUuNjQsMTkuNjJjLTAuNTgsMS42Ni0xLjIyLDMuNDEtMS45NCw1LjIxQzI2NS42OCwyNjQuNjEsMjYzLjI5LDI2My4yNywyNjAuODYsMjYyLjg4eiBNMjY4LjMyLDI3MC40OCYjMTA7JiM5OyYjOTtjMC4wNiwwLjA4LDAuMTEsMC4xNywwLjE3LDAuMjVjMC4zMSwwLjQ3LDAuNiwwLjk1LDAuODgsMS40M2MtMC41Mi0wLjE2LTEuMDQtMC4zNS0xLjU1LTAuNTUmIzEwOyYjOTsmIzk7QzI2Ny45OSwyNzEuMjQsMjY4LjE1LDI3MC44NiwyNjguMzIsMjcwLjQ4eiBNMjY5LjIyLDI2OC4zM2MwLjg4LTIuMTYsMS42Ni00LjI2LDIuMzUtNi4yMmMyLjE4LTYuMjIsNC4wOC0xMi44NCw1LjctMTkuODUmIzEwOyYjOTsmIzk7YzguMTYsMS43NywxOC4wNCwzLjEzLDI5LjA0LDIuN2MxLjY3LDQuMzksMi41OSw4Ljg5LDIuODksMTMuNGMtMC4xNCwwLjA4LTAuMjksMC4xNy0wLjQ0LDAuMjVjLTIuMzUsMS4zMy00Ljc3LDIuMjctNy4xMSwzLjE4JiMxMDsmIzk7JiM5O2MtMy42NCwxLjQyLTcuNDEsMi44OS0xMC43OCw1LjhjLTMuNjcsMy4xNy04Ljc4LDQuOTktMTUuMTgsNS40MmMtMS4yNCwwLjA4LTIuNDcsMC4wMS0zLjcxLTAuMmMtMC41NC0xLjA3LTEuMTUtMi4xMi0xLjgzLTMuMTYmIzEwOyYjOTsmIzk7QzI2OS44NiwyNjkuMTgsMjY5LjU1LDI2OC43NSwyNjkuMjIsMjY4LjMzeiBNMjc3LjcyLDI0MC4zYzEuNTgtNy4xNSwyLjg3LTE0LjY5LDMuODYtMjIuNTdjMS4xOS0zLjkyLDIuMDYtOC4wNiwyLjY0LTEyLjMmIzEwOyYjOTsmIzk7YzguNjgsMTEuNzEsMTUuODgsMjQuMzcsMjEuMjksMzcuNTFDMjk0Ljk4LDI0My4zLDI4NS41NSwyNDEuOTksMjc3LjcyLDI0MC4zeiBNMjc4LjY1LDE3Mi41MmMwLjI5LTIuMTQsMC43Mi00LjMsMS4xNy02LjQzJiMxMDsmIzk7JiM5O2MxLjM2LDUuMjcsMi4zNiwxMS4zLDIuODQsMTcuNjNDMjgxLjk1LDE3OS43LDI4MC43LDE3NS44OCwyNzguNjUsMTcyLjUyeiBNMjY2LjY1LDExOS4yMmMxMi4zLDcuNjIsMTIuNzUsMTUuMzcsMTMuMDUsMjMuNTUmIzEwOyYjOTsmIzk7Yy0yLjY5LTAuNi01LjQ2LTEtOC4yNy0xLjJjLTYuNDYtMTAuOTgtMTQuNzYtMjAuNzgtMjQuMzgtMjguNzJDMjU0LjQyLDExNC40MywyNjIuMzQsMTE2LjU2LDI2Ni42NSwxMTkuMjJ6IE0yNDIuNywxMTEuOTYmIzEwOyYjOTsmIzk7YzEwLjQyLDcuOTMsMTkuNCwxOC4wMywyNi4zMywyOS40OWMtMS42NC0wLjA1LTMuMjktMC4wMy00Ljk1LDAuMDdjLTEwLjkxLDAuNjEtMjMuOTIsMy44NS0zNS40OCw5Ljg2JiMxMDsmIzk7JiM5O2MtMC42Ny03LjMxLTQuNjMtMTQuNTgtOS41MS0yMC4zYy03LjkyLTkuMjctMTYuNDEtMTIuNDktMjUuODYtMTQuNTZjMy40OC0xLjI5LDcuNDktMi4xNSwxMS44Mi0zLjA3JiMxMDsmIzk7JiM5O2MxMi44MS0yLjc0LDIzLjY0LTQuMTMsMzQuODQtMi4wM0MyNDAuNzksMTExLjU5LDI0MS43MywxMTEuNzcsMjQyLjcsMTExLjk2eiBNMTk4LjAzLDk2Ljk0YzE0Ljc0LTMuNTUsMzEuNTksNS44Niw0MC44OSwxMi4yOCYjMTA7JiM5OyYjOTtjLTExLjA1LTEuODItMjEuNzQtMC40MS0zNC4yOSwyLjI3Yy01LjQ2LDEuMTctMTAuNTksMi4yNi0xNC44Nyw0LjMyYy0xLjUtMC4yOS0zLjAyLTAuNTYtNC41Ni0wLjg0JiMxMDsmIzk7JiM5O2MtMC44OC0wLjE2LTEuNzYtMC4zMi0yLjY2LTAuNDhDMTg0Ljk0LDEwNS43NiwxODkuNjIsOTguOTYsMTk4LjAzLDk2Ljk0eiBNMTgyLjA2LDExNi40M2MwLjk0LDAuMTcsMS44NywwLjM0LDIuNzksMC41MSYjMTA7JiM5OyYjOTtjMC43NCwwLjEzLDEuNDcsMC4yNywyLjIsMC40Yy0yLjU2LDEuNjgtNC42OCwzLjg3LTYuMjMsNi44OEMxODEuMDgsMTIxLjUzLDE4MS40OSwxMTguOTEsMTgyLjA2LDExNi40M3ogTTE4MC42MywxMzEuMiYjMTA7JiM5OyYjOTtjMS4yNy02Ljk5LDQuNjYtMTAuODQsOS40My0xMy4zYzEwLjUsMi4wNSwxOS4yMSw0Ljc2LDI3LjUxLDE0LjQ4YzQuODMsNS42NSw4LjcyLDEyLjksOS4wOSwyMC4wNGMtMS43NywwLjk4LTMuNDksMi4wMy01LjE2LDMuMTQmIzEwOyYjOTsmIzk7Yy0xLjE0LTAuMDItMi4yNy0wLjAyLTMuNCwwYy02LjEyLDAuMTEtMTAuNDUsMi4xNS0xMi44OCw2LjA2Yy0wLjcxLDEuMTQtMS4yMywyLjQxLTEuNTksMy43OGMtMy4zMSwxLjYtNi41NiwzLjUtOS43MSw1LjY0JiMxMDsmIzk7JiM5O2MtMC4yNi0wLjE0LTAuNTEtMC4yOS0wLjc2LTAuNDVjLTYuOTctNC4zMy0xMS4wNy0xMi44NC0xMi4xOS0yNS4yOGMtMC4zNy00LjE3LTAuNi04LjU1LTAuNTctMTIuOSYjMTA7JiM5OyYjOTtDMTgwLjQ4LDEzMi4wMSwxODAuNTUsMTMxLjYxLDE4MC42MywxMzEuMnogTTEwOC4yMiwxODQuNjljLTAuNzItMTAuMjksMy44OC0xNy40OCw4Ljc1LTI1LjA4YzQuMjQtNi42Myw4LjYzLTEzLjQ4LDEwLjAyLTIyLjkzJiMxMDsmIzk7JiM5O2MwLjI1LTEuNjksMC40LTMuNDksMC41Ny01LjQxYzAuNTgtNi43LDEuMjMtMTQuMjksNi4zNC0xOC4yMWM4Ljg2LTYuOCwyNS40Mi0yLjIzLDM1LjMyLDAuNWwwLjM5LDAuMTEmIzEwOyYjOTsmIzk7YzMuNjYsMS4wMSw3LjEzLDEuNzUsMTAuNDksMi4zOWMtMS4wNyw0LjY4LTEuNjQsMTAuMDgtMS43LDE2LjE5Yy0wLjM0LDEuNzYtMC43MSwzLjU4LTEuMSw1LjQ5Yy0yLjExLDEwLjIzLTQuNDYsMjEuNjYtMi40MSwzMS42JiMxMDsmIzk7JiM5O2MtMTAuNTItOS43Ny0yNC4xNi0xNy4yMi0zMy4yNC0xOC43N2MtNy4xNi0xLjIyLTEyLjg1LDAuNzUtMTYuODksNS44NWMtMTAuODksMTMuNzMtNi4yNiw0NS4xNS0xLjg4LDU1LjUzJiMxMDsmIzk7JiM5O2MwLjg2LDIuMDQsMS44MSw0LjAyLDIuODYsNS45NGMtMy41OC00LjAxLTguMjQtNy4xLTEzLjQ4LTguMTRjLTAuMzgtMC43My0wLjc3LTEuNDYtMS4xNi0yLjE5Yy0wLjM4LTQuNTYtMS4wMy04Ljk0LTEuNjItMTIuOTQmIzEwOyYjOTsmIzk7QzEwOC45MywxOTEsMTA4LjQyLDE4Ny41OSwxMDguMjIsMTg0LjY5eiBNODguNjgsMjAzLjRjMC4wNC0wLjM5LDAuMDgtMC45MSwwLjEzLTEuNTNjMC4zLTMuODQsMS4xLTE0LjA1LDQuMzktMTQuOTcmIzEwOyYjOTsmIzk7YzAuMTctMC4wNSwwLjM1LTAuMDcsMC41My0wLjA3YzMuNjEsMCw4LjY0LDkuMjMsMTAuNiwxMi44MWMwLjM4LDAuNywwLjY5LDEuMjcsMC45MiwxLjY2YzEuMzQsMi4yNywyLjYzLDQuNTUsMy44Nyw2Ljg0JiMxMDsmIzk7JiM5O2MwLjAzLDAuNCwwLjA2LDAuODEsMC4wOSwxLjIxYy03Ljk2LTAuNjMtMTQuMDUsMS43OS0xOC4xLDcuMjFjLTAuNjgsMC45LTEuMjgsMS44OC0xLjgzLDIuOTImIzEwOyYjOTsmIzk7Qzg4LjMsMjEzLjc2LDg4LjIxLDIwOC4wOSw4OC42OCwyMDMuNHogTTg4Ljg0LDIyNi4zMWMwLjczLDIuNDMsMS42Myw0LjgxLDIuNzUsNy4wN2MtMS4zLDAuMDEtMi42MSwwLjAyLTMuOTIsMC4wMyYjMTA7JiM5OyYjOTtDODcuODgsMjMwLjkxLDg4LjI2LDIyOC41Myw4OC44NCwyMjYuMzF6IE05NS41LDI3OS4wOWMtMy42OC04LjQtOC44My0yNy43OS03Ljk4LTQzLjY5YzEuNzItMC4wMSwzLjQzLTAuMDIsNS4xMi0wLjA0JiMxMDsmIzk7JiM5O2MwLjM1LDAuNjIsMC43MiwxLjIyLDEuMSwxLjgxYy0xLjIsNi4yMSwwLjIxLDEzLDIuNTksMTkuNmMtMS4xMywyLjg1LTAuNzQsNS45Mi0wLjE5LDguNzNjMy41NSwxOC4zMiwxNi44MiwzNy4xOSwyOS4xMSw0OS45MyYjMTA7JiM5OyYjOTtDMTExLjksMzEwLjM3LDEwMS45OCwyOTMuODgsOTUuNSwyNzkuMDl6IE0xMzEuOTIsMzE4Ljk1YzEuNjMsMC4xMSwzLjI4LDAuMDcsNC45My0wLjE0YzAuNzEsMS4zNCwxLjUsMi42NiwyLjM4LDMuOTUmIzEwOyYjOTsmIzk7QzEzNi41NSwzMjEuNzcsMTM0LjA2LDMyMC41MiwxMzEuOTIsMzE4Ljk1eiBNMTM0Ljc0LDMwMi4zNGMwLjIzLTExLjkzLDQuODgtMjcuMTgsMTcuMjItMzAuOWMxLjQ1LTAuNDQsMi45MS0wLjY1LDQuMzUtMC42NSYjMTA7JiM5OyYjOTtjMi4zMSwwLDQuNTUsMC41Niw2LjU2LDEuNjZjMy4xNSwxLjcyLDUuNDQsNC42Niw2LjQ2LDguMjZjMS41NSw1LjQ1LDAuNTgsMTEuMDYtMi44NiwxNi42NmMtNi4zMSwxMC4yNS0xOC45OCwxNy40Mi0yOC4yNSwxOS4yMSYjMTA7JiM5OyYjOTtjLTAuMDgsMC4wMS0wLjE2LDAuMDMtMC4yNCwwLjA0QzEzNS43OCwzMTIuMDEsMTM0LjY0LDMwNy4xNiwxMzQuNzQsMzAyLjM0eiBNMTM4Ljk0LDMxOC40NmM5LjY2LTEuOTgsMjIuNy05LjQ0LDI5LjIzLTIwLjA1JiMxMDsmIzk7JiM5O2MzLjctNi4wMSw0Ljc3LTEyLjMyLDMuMDgtMTguMjVjLTEuMTctNC4xMi0zLjgxLTcuNDktNy40My05LjQ3Yy0zLjc0LTIuMDUtOC4xNi0yLjQ2LTEyLjQ1LTEuMTcmIzEwOyYjOTsmIzk7Yy0xMy4zNyw0LjAzLTE4LjQsMjAuMTctMTguNjUsMzIuNzdjLTAuMDksNC45NCwxLjAyLDkuODksMy4xOCwxNC42MWMtMi4zMiwwLjIyLTQuNTYsMC4xLTYuNzItMC4zMyYjMTA7JiM5OyYjOTtjLTEyLjczLTEyLjQ2LTI3LjM5LTMyLjMtMzEuMS01MS40NGMtMC4zNi0xLjg2LTAuNTYtMy41MS0wLjQ4LTQuOThjMC44OCwyLjE1LDEuODMsNC4yNywyLjgsNi4zMyYjMTA7JiM5OyYjOTtjMC4xMiwwLjI1LDExLjkzLDI1LjA4LDIyLjAyLDI1LjA4YzAuMDgsMCwwLjE3LDAsMC4yNSwwYzMuMTUtMC4xMyw1LjY2LTIuNjIsNy40Ni03LjQyYzQuMzQtMTEuNTgsMC4wNC0yNi43OS0yLjgxLTM2Ljg2JiMxMDsmIzk7JiM5O2MtMC4wNC0wLjE1LTAuMDktMC4zLTAuMTMtMC40NWMzLjU3LTIuMjksNS42Mi01LjkyLDUuODUtMTAuNjdjMC4wNS0wLjk4LDAuMDEtMS45OS0wLjExLTMuMDJjMS4xNy0wLjE4LDIuNC0wLjM5LDMuNjYtMC42MSYjMTA7JiM5OyYjOTtjNi44NCw2LjkxLDE1LjIsMTIuMjYsMjQuNSwxNS41YzAuMTksMC4wNywwLjM4LDAuMTMsMC41OCwwLjJjMS4wMywzLjIxLDIuMzIsNi40LDMuODcsOS41NWM2Ljk4LDE0LjI4LDE4LjU4LDI2LjY3LDMyLjI5LDM0LjY4JiMxMDsmIzk7JiM5O2MtMC42MSw3LjA3LDEuMTQsMTQuNzEsMi4wMywxOC4wMWMwLjcyLDIuNjcsMS42OCw1LjI3LDIuODMsNy43NmMtMTAuNzQsNS43NS0yNC4zOCw3LjQ0LTMyLjIsNy45MyYjMTA7JiM5OyYjOTtjLTQuNzYsMC4zLTE3LjMsMC42OS0yOC4wNS0yLjM1QzE0MS4xMywzMjIuMDgsMTM5Ljk1LDMyMC4zLDEzOC45NCwzMTguNDZ6IE0yMDEuNSwzMzkuODJjLTE0Ljk1LDYuMzUtMzMuMjUsNC4yLTQ3Ljc3LTUuNjEmIzEwOyYjOTsmIzk7Yy0zLjQ1LTIuMzMtNi40OS00Ljk2LTkuMDctNy44MWMxMC4zOSwyLjM5LDIxLjUzLDIuMDMsMjUuOTksMS43NWM4LjAxLTAuNSwyMS44OC0yLjI0LDMyLjk2LTguMTNjMi40Nyw0LjgsNS42Nyw5LjEyLDkuMzIsMTIuNjImIzEwOyYjOTsmIzk7QzIwOS43OSwzMzUuNSwyMDUuOTcsMzM3LjkyLDIwMS41LDMzOS44MnogTTIxNC4zNSwzMzEuMjdjLTMuNTMtMy4zNy02LjYzLTcuNTUtOS4wMS0xMi4yMmM2LjkxLTQuMDcsMTIuNDctOS45MSwxNC40MS0xOC4yOSYjMTA7JiM5OyYjOTtjMS4wNSwwLjE5LDIuMTIsMC4zNCwzLjIxLDAuNDdDMjI0Ljc3LDMxMy4yOCwyMjEuNzYsMzIzLjY3LDIxNC4zNSwzMzEuMjd6IE0yNTMuMzksMzMwLjY3Yy03Ljk5LDcuOTQtMTYuODksMTAuODgtMjUuNzMsOC41JiMxMDsmIzk7JiM5O2MtNC4xMy0xLjExLTguMTYtMy40LTExLjgtNi41NGM3Ljc1LTcuOTIsMTAuOTUtMTguNzEsOS4xNi0zMS4yMmM1LjkxLDAuNDIsMTIuMjItMC4yNCwxOC40MS0yLjg2JiMxMDsmIzk7JiM5O2MwLjQ4LDEzLjg1LDQuNDMsMjMuOTYsMTEuMDMsMjguMDJjMC42MSwwLjM3LDEuMjMsMC43LDEuODgsMC45N0MyNTUuMzUsMzI4LjY1LDI1NC4zNywzMjkuNywyNTMuMzksMzMwLjY3eiBNMjU3LjcyLDMyNS45MyYjMTA7JiM5OyYjOTtjLTAuNzctMC4yNy0xLjUxLTAuNjMtMi4yMi0xLjA2Yy02LjA1LTMuNzItOS43Ni0xMy44LTEwLjEtMjcuMjJjMTAuNDQtNS4xOCwxNy4xLTE0Ljg0LDIxLjU3LTI0LjIyYzEuMiwwLjQ4LDIuNDIsMC44NiwzLjY1LDEuMTQmIzEwOyYjOTsmIzk7QzI3OC42NiwyOTEuNzUsMjY4LjcxLDMxMi43NywyNTcuNzIsMzI1LjkzeiBNMjcyLjQsMzIzLjY0Yy00Ljc1LDIuNDUtOC45NSwzLjM5LTEyLjU0LDIuODNjMTAuODYtMTMuMzUsMjAuMzktMzQuMDcsMTMuMTEtNTEuNTImIzEwOyYjOTsmIzk7YzAuOTQsMC4wOSwxLjg5LDAuMTEsMi44NSwwLjA1YzYuODQtMC40NiwxMi4zNS0yLjQ0LDE2LjM1LTUuOWMzLjExLTIuNjgsNi41Ni00LjAzLDEwLjItNS40NWMyLjI2LTAuODgsNC41OS0xLjc5LDYuOTItMy4wNSYjMTA7JiM5OyYjOTtDMzA5Ljg5LDI4Ny45OSwyODguMzMsMzE1LjQzLDI3Mi40LDMyMy42NHogTTMxMS4xLDI1Ny4yM2MtMC4zNS00LjE2LTEuMjItOC4zMS0yLjY5LTEyLjM3YzUuMzEtMC4zMSwxMC44Ni0xLjA1LDE2LjYtMi4zNyYjMTA7JiM5OyYjOTtDMzIzLjA3LDI0Ny45LDMxOC41MywyNTIuNjcsMzExLjEsMjU3LjIzeiBNMzI1LjY3LDI0MC4yMmMtNi4yNiwxLjUxLTEyLjMsMi4zMi0xOC4wNCwyLjYzYy01Ljc1LTE0LjE2LTEzLjU3LTI3Ljc4LTIzLjA2LTQwLjI4JiMxMDsmIzk7JiM5O2MxLjQ4LTE0LTAuMDctMjguODYtMy44NS00MC42OGMwLjk1LTQuNiwxLjc0LTkuMzIsMS4yNy0xNC4wM2MtMC4wOC0wLjgyLTAuMTQtMS42Ny0wLjE4LTIuNTFjMTQuNyw0LjAxLDI2Ljc5LDEzLjk5LDMxLjg2LDI3LjM0JiMxMDsmIzk7JiM5O2MyLjUzLDYuNjcsNC4xOCwxNy41Niw1LjUsMjYuMzFjMC41LDMuMzMsMC45OCw2LjQ3LDEuNDUsOS4wOWMwLjY0LDMuNTYsMS41MSw3LjExLDIuMzYsMTAuNTRjMS4xNCw0LjY3LDIuMzMsOS41LDIuOTUsMTQuMzgmIzEwOyYjOTsmIzk7QzMyNi4yNSwyMzUuNTQsMzI2LjE3LDIzNy45NCwzMjUuNjcsMjQwLjIyeiIgY2xhc3M9InN0MCIvPiYjeGE7CTxnPiYjeGE7CQk8cGF0aCBkPSJNNDE3LjY1LDIwNC43NWMtMC4wMSwwLTAuMDIsMC0wLjA0LDBjLTAuNTUtMC4wMi0wLjk4LTAuNDgtMC45Ni0xLjAzbDEuNTgtNDYuMTdsLTQwLjc3LDIxLjcyJiMxMDsmIzk7JiM5OyYjOTtjLTAuNDksMC4yNi0xLjA5LDAuMDctMS4zNS0wLjQxYy0wLjI2LTAuNDktMC4wOC0xLjA5LDAuNDEtMS4zNWw0Mi4zLTIyLjUzYzAuMzEtMC4xNywwLjctMC4xNiwxLDAuMDMmIzEwOyYjOTsmIzk7JiM5O2MwLjMsMC4xOSwwLjQ4LDAuNTMsMC40NywwLjg4bC0xLjY0LDQ3LjlDNDE4LjYzLDIwNC4zMyw0MTguMTksMjA0Ljc1LDQxNy42NSwyMDQuNzV6IiBjbGFzcz0ic3QwIi8+JiN4YTsJPC9nPiYjeGE7PC9nPiYjeGE7PC9zdmc+;" vertex="1" parent="1">
          <mxGeometry x="252.25" y="288.75" width="34.5" height="34.5" as="geometry" />
        </mxCell>
      </root>
    </mxGraphModel>
  </diagram>
</mxfile>
